<svg enable-background="new 0 0 512 512" viewBox="0 0 512 512" xmlns="http://www.w3.org/2000/svg" xmlns:xlink="http://www.w3.org/1999/xlink"><defs><path id="a" d="m199.35 410.91c.1.09.19.18.29.27 3.78 3.47 8.27 5.22 12.94 5.87 9.18 1.28 19.04-1.72 25.57-4.39 3.36-1.38 5.75-4.01 6.94-7.07.83-2.14 1.07-4.48.65-6.75-.33-1.8-1.08-3.55-2.28-5.11-.1-.14-.21-.27-.32-.41-.71-.84-1.55-1.65-2.56-2.4-.11-.08-.23-.17-.35-.25-.77-.54-1.64-1.04-2.6-1.51-3.5-1.67-6.44-4.25-8.47-7.46-.85-1.33-1.53-2.78-2.04-4.31-.36-1.08-.85-2.17-1.48-3.22-3.25-5.46-9.93-9.66-17.76-5.02-1.25.74-2.53 1.71-3.84 2.94.01.01-21.95 22.45-4.69 38.82z"/><linearGradient id="b"><stop offset="0" stop-color="#f6f6f6"/><stop offset="1" stop-color="#cfcfcf"/></linearGradient><linearGradient id="c" gradientTransform="matrix(-1 0 0 1 -9165.3457 0)" gradientUnits="userSpaceOnUse" x1="-9513.8398" x2="-9533.3213" xlink:href="#b" y1="-31.5457" y2="56.1234"/><linearGradient id="d" gradientTransform="matrix(-1 0 0 1 -9165.3457 0)" gradientUnits="userSpaceOnUse" x1="-9563.4355" x2="-9552.0391" xlink:href="#b" y1="160.239" y2="304.7457"/><linearGradient id="e"><stop offset="0" stop-color="#dcddde"/><stop offset="1" stop-color="#00b9b1"/></linearGradient><linearGradient id="f" gradientTransform="matrix(-1 0 0 1 -9165.3457 0)" gradientUnits="userSpaceOnUse" x1="-9530.126" x2="-9527.3457" xlink:href="#e" y1="132.3389" y2="167.5943"/><linearGradient id="g"><stop offset="0" stop-color="#87dbf1"/><stop offset="1" stop-color="#9da0a0"/></linearGradient><linearGradient id="h" gradientTransform="matrix(-1 0 0 1 -9165.3457 0)" gradientUnits="userSpaceOnUse" x1="-9527.9189" x2="-9527.415" xlink:href="#g" y1="127.3224" y2="169.82"/><linearGradient id="i" gradientTransform="matrix(-1 0 0 1 -9165.3457 0)" gradientUnits="userSpaceOnUse" x1="-9528.1787" x2="-9527.6748" xlink:href="#g" y1="127.3255" y2="169.8229"/><linearGradient id="j" gradientTransform="matrix(-1 0 0 1 9477.4248 0)" gradientUnits="userSpaceOnUse" x1="9120.4375" x2="9118.291" xlink:href="#b" y1="-13.3134" y2="2.4256"/><linearGradient id="k" gradientUnits="userSpaceOnUse" x1="134.7734" x2="131.6865" xlink:href="#b" y1="90.4121" y2="113.0539"/><linearGradient id="l" gradientUnits="userSpaceOnUse" x1="167.9576" x2="165.7452" xlink:href="#b" y1="12.5131" y2="28.7397"/><linearGradient id="m" gradientUnits="userSpaceOnUse" x1="74.5282" x2="227.9708" xlink:href="#b" y1="288.8561" y2="340.9294"/><linearGradient id="n" gradientUnits="userSpaceOnUse" x1="255.1857" x2="255.1857" xlink:href="#b" y1="234.2754" y2="188.089"/><linearGradient id="o" gradientUnits="userSpaceOnUse" x1="269.8423" x2="265.1675" xlink:href="#b" y1="516.7437" y2="462.2044"/><linearGradient id="p" gradientUnits="userSpaceOnUse" x1="218.6775" x2="218.6775" xlink:href="#b" y1="555.1542" y2="480.5847"/><linearGradient id="q" gradientUnits="userSpaceOnUse" x1="443.2597" x2="442.6928" xlink:href="#b" y1="369.714" y2="363.1006"/><linearGradient id="r" gradientUnits="userSpaceOnUse" x1="413.5791" x2="413.5791" xlink:href="#b" y1="314.0002" y2="324.739"/><linearGradient id="s" gradientUnits="userSpaceOnUse" x1="431.7051" x2="425.4239" xlink:href="#b" y1="329.5354" y2="343.3135"/><linearGradient id="t" gradientUnits="userSpaceOnUse" x1="452.1182" x2="452.3213" xlink:href="#b" y1="344.5468" y2="356.5013"/><linearGradient id="u" gradientUnits="userSpaceOnUse" x1="439.2608" x2="460.333" xlink:href="#b" y1="328.968" y2="344.3671"/><linearGradient id="v" gradientUnits="userSpaceOnUse" x1="447.3462" x2="444.0227" xlink:href="#g" y1="313.4521" y2="317.2504"/><linearGradient id="w" gradientUnits="userSpaceOnUse" x1="441.4953" x2="428.9925" xlink:href="#g" y1="317.8972" y2="334.9897"/><linearGradient id="x" gradientUnits="userSpaceOnUse" x1="334.6134" x2="334.0466" xlink:href="#b" y1="310.8273" y2="304.2139"/><linearGradient id="y" gradientUnits="userSpaceOnUse" x1="304.9327" x2="304.9327" xlink:href="#b" y1="255.1135" y2="265.8523"/><linearGradient id="z" gradientUnits="userSpaceOnUse" x1="323.0586" x2="316.7774" xlink:href="#b" y1="270.6487" y2="284.4268"/><linearGradient id="A" gradientUnits="userSpaceOnUse" x1="343.4717" x2="343.6748" xlink:href="#b" y1="285.66" y2="297.6146"/><linearGradient id="B" gradientUnits="userSpaceOnUse" x1="330.6143" x2="351.6866" xlink:href="#b" y1="270.0812" y2="285.4803"/><linearGradient id="C" gradientUnits="userSpaceOnUse" x1="338.6999" x2="335.3764" xlink:href="#g" y1="254.5654" y2="258.3637"/><linearGradient id="D" gradientUnits="userSpaceOnUse" x1="332.849" x2="320.3462" xlink:href="#g" y1="259.0105" y2="276.1029"/><linearGradient id="E"><stop offset="0" stop-color="#fff"/><stop offset="1" stop-color="#cfcfcf"/></linearGradient><linearGradient id="F" gradientUnits="userSpaceOnUse" x1="204.4293" x2="204.4293" xlink:href="#E" y1="116.5338" y2="174.2552"/><linearGradient id="G" gradientUnits="userSpaceOnUse" x1="198.0939" x2="285.1278" xlink:href="#E" y1="292.4132" y2="174.0976"/><linearGradient id="H" gradientUnits="userSpaceOnUse" x1="146.7745" x2="146.7745" xlink:href="#E" y1="171.4498" y2="260.6555"/><linearGradient id="I" gradientUnits="userSpaceOnUse" x1="205.5664" x2="205.5664" xlink:href="#e" y1="38.2977" y2="213.8192"/><linearGradient id="J" gradientUnits="userSpaceOnUse" x1="234.3386" x2="224.2671" xlink:href="#e" y1="223.5757" y2="273.018"/><linearGradient id="K" gradientUnits="userSpaceOnUse" x1="211.7935" x2="214.5403" xlink:href="#e" y1="268.5335" y2="263.6503"/><linearGradient id="L" gradientUnits="userSpaceOnUse" x1="256.7982" x2="262.4744" xlink:href="#e" y1="312.3583" y2="257.8675"/><linearGradient id="M" gradientUnits="userSpaceOnUse" x1="276.0711" x2="281.7473" xlink:href="#e" y1="314.3659" y2="259.8751"/><linearGradient id="N" gradientUnits="userSpaceOnUse" x1="300.9379" x2="300.9379" xlink:href="#e" y1="244.2298" y2="310.8343"/><linearGradient id="O" gradientUnits="userSpaceOnUse" x1="374.1769" x2="374.1769" xlink:href="#e" y1="289.7799" y2="355.1572"/><linearGradient id="P" gradientTransform="matrix(-1 0 0 1 -9317.709 0)" gradientUnits="userSpaceOnUse" x1="-9659.0107" x2="-9644.0107" xlink:href="#e" y1="284.4224" y2="284.4224"/><linearGradient id="Q"><stop offset="0" stop-color="#f6f6f6"/><stop offset="1" stop-color="#9da0a0"/></linearGradient><linearGradient id="R" gradientTransform="matrix(-1 0 0 1 -9317.709 0)" gradientUnits="userSpaceOnUse" x1="-9644.5498" x2="-9654.2041" xlink:href="#Q" y1="293.896" y2="285.3145"/><linearGradient id="S" gradientTransform="matrix(-1 0 0 1 -9317.709 0)" gradientUnits="userSpaceOnUse" x1="-9651.3223" x2="-9653.6191" xlink:href="#e" y1="302.996" y2="335.1534"/><linearGradient id="T" gradientTransform="matrix(-1 0 0 1 -9317.709 0)" gradientUnits="userSpaceOnUse" x1="-9656.6689" x2="-9658.9658" xlink:href="#e" y1="306.0728" y2="338.23"/><linearGradient id="U" gradientTransform="matrix(-1 0 0 1 -9317.709 0)" gradientUnits="userSpaceOnUse" x1="-9663.6113" x2="-9660.6211" xlink:href="#Q" y1="259.6229" y2="297.1997"/><linearGradient id="V" gradientTransform="matrix(-1 0 0 1 -9317.709 0)" gradientUnits="userSpaceOnUse" x1="-9660.4863" x2="-9662.5" xlink:href="#e" y1="285.2927" y2="313.4883"/><linearGradient id="W" gradientTransform="matrix(-1 0 0 1 -9317.709 0)" gradientUnits="userSpaceOnUse" x1="-9667.9717" x2="-9660.9502" xlink:href="#Q" y1="265.7536" y2="305.8008"/><linearGradient id="X" gradientTransform="matrix(-1 0 0 1 -9317.709 0)" gradientUnits="userSpaceOnUse" x1="-9661.9678" x2="-9661.8096" xlink:href="#e" y1="274.9851" y2="269.6776"/><linearGradient id="Y" gradientTransform="matrix(-1 0 0 1 -9317.709 0)" gradientUnits="userSpaceOnUse" x1="-9663.1162" x2="-9662.3848" xlink:href="#e" y1="269.4738" y2="259.5959"/><linearGradient id="Z" gradientUnits="userSpaceOnUse" x1="315.3375" x2="298.3967" xlink:href="#e" y1="112.3315" y2="117.3979"/><linearGradient id="aa" gradientUnits="userSpaceOnUse" x1="281.2747" x2="299.0291" xlink:href="#e" y1="141.2148" y2="125.0155"/><linearGradient id="ab" gradientTransform="matrix(.956 .2935 -.2935 .956 965.6638 5.164)" gradientUnits="userSpaceOnUse" x1="-612.5482" x2="-612.7368" xlink:href="#e" y1="294.1247" y2="286.9577"/><linearGradient id="ac"><stop offset="0" stop-color="#8d8f92"/><stop offset="1" stop-color="#3d90d9"/></linearGradient><linearGradient id="ad" gradientUnits="userSpaceOnUse" x1="293.7308" x2="295.0915" xlink:href="#ac" y1="107.5356" y2="100.5376"/><linearGradient id="ae" gradientUnits="userSpaceOnUse" x1="267.9567" x2="283.1556" xlink:href="#E" y1="102.032" y2="116.1227"/><linearGradient id="af" gradientUnits="userSpaceOnUse" x1="305.2931" x2="296.3875" xlink:href="#E" y1="116.5632" y2="117.9881"/><linearGradient id="ag" gradientUnits="userSpaceOnUse" x1="286.9327" x2="286.5764" xlink:href="#E" y1="105.8744" y2="126.5354"/><linearGradient id="ah" gradientUnits="userSpaceOnUse" x1="295.0414" x2="296.4021" xlink:href="#ac" y1="107.7905" y2="100.7925"/><linearGradient id="ai" gradientUnits="userSpaceOnUse" x1="245.4864" x2="247.8988" xlink:href="#e" y1="111.4935" y2="118.2574"/><linearGradient id="aj" gradientUnits="userSpaceOnUse" x1="126.2442" x2="127.8682" xlink:href="#b" y1="393.1983" y2="376.3105"/><linearGradient id="ak" gradientUnits="userSpaceOnUse" x1="128.7383" x2="146.0181" xlink:href="#e" y1="338.4234" y2="326.9036"/><linearGradient id="al" gradientUnits="userSpaceOnUse" x1="122.5362" x2="145.023" xlink:href="#e" y1="339.6913" y2="324.6999"/><linearGradient id="am" gradientTransform="matrix(.9893 -.1457 .1457 .9893 -5939.1792 18.7718)" gradientUnits="userSpaceOnUse" x1="5969.189" x2="5972.8228" xlink:href="#e" y1="1189.5953" y2="1183.3804"/><linearGradient id="an" gradientTransform="matrix(-.9893 .1457 .1457 .9893 -6230.7812 61.2899)" gradientUnits="userSpaceOnUse" x1="-6272.1909" x2="-6263.3101" xlink:href="#e" y1="1156.616" y2="1138.4318"/><linearGradient id="ao" gradientTransform="matrix(-1 0 0 1 1078.9106 0)" gradientUnits="userSpaceOnUse" x1="942.1232" x2="950.8919" xlink:href="#e" y1="294.2426" y2="332.2405"/><linearGradient id="ap" gradientTransform="matrix(-.8661 -.4999 -.4999 .8661 -5959.4097 -157.2719)" gradientUnits="userSpaceOnUse" x1="-5521.665" x2="-5500.0347" xlink:href="#e" y1="-2632.6799" y2="-2669.6738"/><linearGradient id="aq" gradientTransform="matrix(-1 0 0 1 1078.9106 0)" gradientUnits="userSpaceOnUse" x1="939.4679" x2="941.5789" xlink:href="#e" y1="294.7108" y2="307.3226"/><linearGradient id="ar" gradientUnits="userSpaceOnUse" x1="232.5547" x2="233.0592" xlink:href="#b" y1="190.8491" y2="187.065"/><linearGradient id="as" gradientTransform="matrix(-1 0 0 1 -6843.8706 0)" gradientUnits="userSpaceOnUse" x1="-7088.4873" x2="-7076.8135" xlink:href="#e" y1="94.0568" y2="109.5249"/><linearGradient id="at" gradientTransform="matrix(-1 0 0 1 -6843.8706 0)" gradientUnits="userSpaceOnUse" x1="-7065.1274" x2="-7081.2485" xlink:href="#e" y1="219.5665" y2="124.375"/><linearGradient id="au" gradientTransform="matrix(-1 0 0 1 -6843.8706 0)" gradientUnits="userSpaceOnUse" x1="-7078.1304" x2="-7080.3281" xlink:href="#e" y1="114.4019" y2="101.4265"/><linearGradient id="av" gradientTransform="matrix(-1 0 0 1 -6843.8706 0)" gradientUnits="userSpaceOnUse" x1="-7082.8447" x2="-7075.75" xlink:href="#e" y1="104.3145" y2="95.9491"/><linearGradient id="aw" gradientTransform="matrix(-1 0 0 1 -6843.8706 0)" gradientUnits="userSpaceOnUse" x1="-7064.1055" x2="-7087.7607" xlink:href="#e" y1="244.7497" y2="105.0698"/><linearGradient id="ax" gradientTransform="matrix(-1 0 0 1 -6843.8706 0)" gradientUnits="userSpaceOnUse" x1="-7086.1299" x2="-7078.7881" xlink:href="#g" y1="109.5359" y2="125.843"/><linearGradient id="ay" gradientUnits="userSpaceOnUse" x1="246.1584" x2="235.7743" xlink:href="#e" y1="170.309" y2="108.9936"/><linearGradient id="az" gradientTransform="matrix(-1 0 0 1 -6843.8706 0)" gradientUnits="userSpaceOnUse" x1="-7078.061" x2="-7087.6919" xlink:href="#g" y1="112.6691" y2="127.6503"/><linearGradient id="aA" gradientUnits="userSpaceOnUse" x1="82.5535" x2="82.0821" xlink:href="#b" y1="320.335" y2="323.7919"/><linearGradient id="aB" gradientUnits="userSpaceOnUse" x1="69.6252" x2="63.9873" xlink:href="#b" y1="301.9216" y2="328.3492"/><linearGradient id="aC" gradientUnits="userSpaceOnUse" x1="79.6754" x2="78.7945" xlink:href="#b" y1="304.5779" y2="338.5814"/><linearGradient id="aD" gradientUnits="userSpaceOnUse" x1="72.653" x2="73.3578" xlink:href="#b" y1="290.2999" y2="304.2184"/><linearGradient id="aE" gradientUnits="userSpaceOnUse" x1="75.8466" x2="86.4176" xlink:href="#b" y1="293.4775" y2="301.9344"/><linearGradient id="aF" gradientUnits="userSpaceOnUse" x1="75.1176" x2="71.0654" xlink:href="#g" y1="234.4354" y2="287.9952"/><linearGradient id="aG" gradientUnits="userSpaceOnUse" x1="65.9868" x2="68.4534" xlink:href="#g" y1="261.2509" y2="300.0113"/><linearGradient id="aH" gradientUnits="userSpaceOnUse" x1="72.7241" x2="65.1483" xlink:href="#g" y1="294.3543" y2="309.8584"/><linearGradient id="aI" gradientUnits="userSpaceOnUse" x1="263.1415" x2="263.1415" xlink:href="#b" y1="221.5391" y2="206.5275"/><linearGradient id="aJ" gradientUnits="userSpaceOnUse" x1="329.3964" x2="351.0663" xlink:href="#b" y1="209.5104" y2="169.1257"/><linearGradient id="aK" gradientUnits="userSpaceOnUse" x1="343.3435" x2="365.0134" xlink:href="#b" y1="216.9942" y2="176.6095"/><linearGradient id="aL" gradientUnits="userSpaceOnUse" x1="357.2906" x2="378.9605" xlink:href="#b" y1="224.4782" y2="184.0934"/><linearGradient id="aM" gradientUnits="userSpaceOnUse" x1="371.2965" x2="392.9665" xlink:href="#b" y1="231.9935" y2="191.6087"/><linearGradient id="aN" gradientUnits="userSpaceOnUse" x1="385.2896" x2="406.9594" xlink:href="#b" y1="239.5018" y2="199.1171"/><linearGradient id="aO" gradientUnits="userSpaceOnUse" x1="399.2566" x2="420.9265" xlink:href="#b" y1="246.9964" y2="206.6116"/><linearGradient id="aP" gradientUnits="userSpaceOnUse" x1="413.0933" x2="434.7633" xlink:href="#b" y1="254.4211" y2="214.0362"/><linearGradient id="aQ" gradientUnits="userSpaceOnUse" x1="329.3964" x2="351.0663" xlink:href="#b" y1="228.2008" y2="187.8161"/><linearGradient id="aR" gradientUnits="userSpaceOnUse" x1="343.3435" x2="365.0134" xlink:href="#b" y1="235.6846" y2="195.2999"/><linearGradient id="aS" gradientUnits="userSpaceOnUse" x1="357.2906" x2="378.9605" xlink:href="#b" y1="243.1686" y2="202.7838"/><linearGradient id="aT" gradientUnits="userSpaceOnUse" x1="371.2965" x2="392.9665" xlink:href="#b" y1="250.6839" y2="210.2991"/><linearGradient id="aU" gradientUnits="userSpaceOnUse" x1="396.5916" x2="379.1849" xlink:href="#e" y1="215.5825" y2="254.1801"/><linearGradient id="aV" gradientUnits="userSpaceOnUse" x1="394.8891" x2="436.1355" xlink:href="#b" y1="121.7589" y2="195.1699"/><linearGradient id="aW" gradientUnits="userSpaceOnUse" x1="387.6673" x2="428.9137" xlink:href="#b" y1="125.8165" y2="199.2275"/><linearGradient id="aX" gradientUnits="userSpaceOnUse" x1="233.6403" x2="233.076" xlink:href="#b" y1="434.3108" y2="427.7268"/><linearGradient id="aY" gradientTransform="matrix(-1 0 0 1 4305.3208 0)" gradientUnits="userSpaceOnUse" x1="4085.0579" x2="4087.2952" xlink:href="#e" y1="378.2166" y2="427.4348"/><clipPath id="aZ"><use xlink:href="#a"/></clipPath><linearGradient id="a0" gradientTransform="matrix(-1 0 0 1 4305.3208 0)" gradientUnits="userSpaceOnUse" x1="4080.6467" x2="4081.0554" xlink:href="#e" y1="362.9653" y2="422.4239"/><linearGradient id="a1" gradientTransform="matrix(-1 0 0 1 4305.3208 0)" gradientUnits="userSpaceOnUse" x1="4071.5034" x2="4072.1702" xlink:href="#e" y1="380.9172" y2="395.5884"/><linearGradient id="a2" gradientUnits="userSpaceOnUse" x1="287.7731" x2="287.2087" xlink:href="#b" y1="460.6923" y2="454.1082"/><linearGradient id="a3"><stop offset="0" stop-color="#a3f2ff"/><stop offset="1" stop-color="#9da0a0"/></linearGradient><linearGradient id="a4" gradientTransform="matrix(-1 0 0 1 4305.3208 0)" gradientUnits="userSpaceOnUse" x1="4030.925" x2="4033.1624" xlink:href="#a3" y1="404.5981" y2="453.8163"/><clipPath id="a5"><use xlink:href="#a8"/></clipPath><linearGradient id="a6" gradientTransform="matrix(-1 0 0 1 4305.3208 0)" gradientUnits="userSpaceOnUse" x1="4026.5139" x2="4026.9226" xlink:href="#a3" y1="389.3467" y2="448.8054"/><linearGradient id="a7" gradientTransform="matrix(-1 0 0 1 4305.3208 0)" gradientUnits="userSpaceOnUse" x1="4017.3706" x2="4018.0376" xlink:href="#a3" y1="407.2986" y2="421.9698"/><path id="a8" d="m253.48 437.29c.1.09.19.18.29.27 3.78 3.47 8.27 5.22 12.94 5.87 9.18 1.28 19.04-1.72 25.57-4.39 3.36-1.38 5.75-4.01 6.94-7.07.83-2.14 1.07-4.48.65-6.75-.33-1.8-1.08-3.55-2.28-5.11-.1-.14-.21-.27-.32-.41-.71-.84-1.55-1.65-2.56-2.4-.11-.08-.23-.17-.35-.25-.77-.54-1.64-1.04-2.6-1.51-3.5-1.67-6.44-4.25-8.47-7.46-.85-1.33-1.53-2.78-2.04-4.31-.36-1.08-.85-2.17-1.48-3.22-3.25-5.46-9.93-9.66-17.76-5.02-1.25.74-2.53 1.71-3.84 2.94.01.01-21.94 22.45-4.69 38.82z"/></defs><path d="m326.75 88.14.01 123.37c0 5.68 4.02 12.65 8.94 15.48l124.53 72.16c1.33.77 2.6 1.16 3.74 1.2 3.07.13 5.2-2.22 5.2-6.36v-123.37c0-5.68-4.03-12.65-8.94-15.48l-124.53-72.16c-4.14-2.39-7.64-1.12-8.66 2.73-.18.72-.29 1.53-.29 2.43z" fill="url(#c)"/><path d="m326.75 88.14.01 123.37c0 5.68 4.02 12.65 8.94 15.48l124.53 72.16c1.33.77 2.6 1.16 3.74 1.2.19-.72.29-1.54.29-2.44v-123.35c0-5.68-4.02-12.65-8.94-15.48l-124.53-72.17c-1.33-.77-2.6-1.16-3.74-1.2-.19.72-.3 1.53-.3 2.43z" fill="url(#d)"/><path d="m383.93 151.76c0-12.56-8.9-27.98-19.78-34.26s-19.78-1.14-19.78 11.42 8.9 27.98 19.78 34.26 19.78 1.14 19.78-11.42z" fill="url(#f)"/><path d="m368.93 134.21c0-4.06-2.88-9.05-6.4-11.08s-6.4-.37-6.4 3.69 2.88 9.05 6.4 11.08 6.4.37 6.4-3.69z" fill="url(#h)"/><path d="m372.13 160.37-19.19-11.08v-4.68c0-4.49 4.86-7.29 8.74-5.05l1.41.82c5.59 3.23 9.04 9.2 9.04 15.66z" fill="url(#i)"/><path d="m285.51 39.19 117.02 67.56c29.75 17.18 64.08-19.07 35.97-38.82-27.33-19.21-32.79-2.69-46.52 0-15.41 3.02-4.57-20.46-26.94-24.78-19.68-3.8-17.59 11.5-29.23 12.25-12.42.8-50.3-16.21-50.3-16.21z" fill="url(#j)" opacity=".5"/><path d="m42.76 269.61 147.51-84.22s-5.99-48.61-19.94-16.25-43.28-39.11-59.46 26.54c-7.11 28.84-72.72 41.74-68.11 73.93z" fill="url(#k)" opacity=".5"/><path d="m107.26 141.65 95.96-55.4s-5.75-46.64-19.13-15.59-41.52-37.52-57.04 25.46c-6.83 27.68-24.22 14.65-19.79 45.53z" fill="url(#l)" opacity=".5"/><path d="m459.81 373.08-184.91 104.02c-4.8 2.75-10.69 2.73-15.46-.05l-208.96-122.95c-6.6-3.84-8.96-11.35-7.06-17.8 1.05-3.59 3.43-6.86 7.11-8.98l184.49-104.22c4.8-2.76 10.71-2.75 15.49.03l209.38 123.15c3.66 2.13 6.01 5.37 7.06 8.94 1.91 6.49-.47 14.03-7.14 17.86z" fill="url(#m)"/><path d="m466.94 355.22c-1.06 3.59-3.43 6.86-7.13 8.99l-184.91 104.02c-4.8 2.75-10.69 2.73-15.46-.05l-208.96-122.95c-3.65-2.12-6.01-5.36-7.06-8.93 1.05-3.59 3.43-6.86 7.11-8.98l184.49-104.22c4.8-2.76 10.71-2.75 15.49.03l209.38 123.15c3.66 2.13 6 5.38 7.05 8.94z" fill="url(#n)"/><path d="m268.46 464.32c-2.83 0-5.66-.73-8.18-2.2l-197.91-116.53c-3.63-2.11-6.26-5.45-7.43-9.41l-.17-.56.16-.56c1.17-4 3.83-7.36 7.49-9.47l170.96-96.44c5.04-2.9 11.29-2.88 16.31.04l198.31 116.72c3.62 2.11 6.26 5.45 7.43 9.42l.17.56-.17.56c-1.18 4.01-3.85 7.37-7.51 9.47l-171.36 96.25c-2.5 1.44-5.3 2.15-8.1 2.15zm-209.51-128.7c.95 2.73 2.86 5.03 5.43 6.52l197.91 116.53c3.78 2.2 8.49 2.22 12.29.04l171.35-96.25c2.59-1.49 4.52-3.81 5.49-6.57-.96-2.77-2.83-5.02-5.43-6.53l-198.3-116.72c-3.79-2.2-8.51-2.21-12.32-.03l-170.95 96.44c-2.59 1.49-4.51 3.81-5.47 6.57z" fill="url(#o)"/><path d="m141.55 330.45s29.42 38.1 54.56 40.23 136.01-42.77 87.59-91.3c-48.41-48.54-142.15 51.07-142.15 51.07z" fill="url(#p)" opacity=".7"/><path d="m419.37 336.33s14.52 27.57 28.89 26.59 25.14-10.99-1.87-18.79c-27.02-7.8-27.02-7.8-27.02-7.8z" fill="url(#q)" opacity=".7"/><path d="m419.37 319.62v-4.46l-11.58 6.69 3.89 2.24z" fill="url(#r)"/><path d="m407.79 330.19v-8.34l38.59 22.28v13.37l-34.24-19.77c-2.69-1.56-4.35-4.43-4.35-7.54z" fill="url(#s)"/><path d="m453.74 353.24-7.36 4.25v-13.37l11.58-6.68v8.5c0 3.01-1.61 5.8-4.22 7.3z" fill="url(#t)"/><path d="m457.96 337.44-38.59-22.28v4.46l34.73 20.05z" fill="url(#u)"/><path d="m411.68 324.09 7.69-4.47 34.73 20.05-7.72 4.46z" fill="#00b9b1"/><path d="m419.37 325.97s3.11-8.7 9.59-6c6.49 2.7-1.69 9.39 7.15 4.86s6.76 14.51 6.76 14.51z" fill="url(#v)"/><path d="m416.52 324.35s.34-11.44 5.56-10.86-1.94 18.4 5.35 10.79 5.23 8.71 12.51 6.71 12.06-13.47 12.51-1.11-6.04 11.48-6.04 11.48z" fill="url(#w)"/><path d="m310.72 277.44s14.52 27.57 28.89 26.59 25.14-10.99-1.87-18.79c-27.02-7.8-27.02-7.8-27.02-7.8z" fill="url(#x)" opacity=".7"/><path d="m310.72 260.73v-4.45l-11.58 6.68 3.9 2.25z" fill="url(#y)"/><path d="m299.14 271.3v-8.34l38.59 22.28v13.37l-34.24-19.77c-2.69-1.55-4.35-4.43-4.35-7.54z" fill="url(#z)"/><path d="m345.1 294.36-7.36 4.25v-13.37l11.58-6.68v8.5c-.01 3.01-1.62 5.79-4.22 7.3z" fill="url(#A)"/><path d="m349.31 278.56-38.59-22.28v4.45l34.73 20.05z" fill="url(#B)"/><path d="m303.04 265.21 7.68-4.48 34.73 20.05-7.72 4.46z" fill="#00b9b1"/><path d="m310.72 267.08s3.11-8.7 9.59-6c6.49 2.7-1.69 9.39 7.15 4.86s6.76 14.51 6.76 14.51z" fill="url(#C)"/><path d="m307.87 265.46s.34-11.44 5.56-10.86-1.94 18.4 5.35 10.79 5.23 8.71 12.51 6.71 12.06-13.47 12.51-1.11-6.04 11.48-6.04 11.48z" fill="url(#D)"/><path d="m283.71 162.87-115.31 66.57-43.25-24.96 115.31-66.58z" fill="url(#F)"/><path d="m283.71 279.37v-116.5l-115.31 66.57-.01 116.51z" fill="url(#G)"/><path d="m125.15 204.48v97.57c0 11.72 6.25 22.54 16.4 28.4l26.84 15.5v-116.5z" fill="url(#H)"/><path d="m160.24 213.82c-2.96 0-5.36-2.4-5.36-5.36v-72.07c0-38.58 20.76-74.53 54.17-93.82 9.85-5.69 21.62-5.69 31.47 0s15.73 15.88 15.73 27.25v86.3c0 2.96-2.4 5.36-5.36 5.36s-5.36-2.4-5.36-5.36v-86.3c0-7.5-3.88-14.22-10.38-17.97s-14.25-3.75-20.75 0c-30.11 17.38-48.81 49.78-48.81 84.54v72.07c.01 2.96-2.39 5.36-5.35 5.36z" fill="url(#I)"/><path d="m243.68 229.49v8.83c0 2.32-.62 4.55-1.74 6.49s-2.74 3.59-4.75 4.75c-1.38.8-2.23 2.27-2.23 3.86v13.5c0 1.26-.34 2.46-.94 3.51-.61 1.05-1.49 1.94-2.57 2.57-2.31 1.34-5.2-.33-5.2-3.01v-8.44-3.5c0-.73-.6-1.26-1.26-1.26-.21 0-.43.05-.63.17-2.5 1.45-5.52.21-6.51-2.24-.21-.52-.32-1.09-.32-1.71v-5.99c0-10.1 5.39-19.43 14.13-24.48 1.17-.67 2.4-1.02 3.61-1.08 4.34-.2 8.41 3.21 8.41 8.03z" fill="url(#J)"/><path d="m235.29 222.01v8.83c0 2.32-.62 4.55-1.74 6.49s-2.74 3.59-4.75 4.75c-1.38.8-2.23 2.27-2.23 3.86v13.51c0 .73-.11 1.44-.33 2.11v-3.5c0-.73-.6-1.26-1.26-1.26-.21 0-.43.05-.63.17-2.5 1.45-5.52.21-6.51-2.24-.21-.52-.32-1.09-.32-1.71v-3.16c.02-.06.02-.11 0-.13v-2.7c0-10.1 5.39-19.43 14.13-24.48 1.17-.67 2.4-1.02 3.61-1.08.02.18.03.36.03.54z" fill="url(#K)"/><path d="m261.29 286.77c-1.98 0-3.58-1.6-3.58-3.58v-27.92c0-1.98 1.6-3.58 3.58-3.58 1.98 0 3.58 1.6 3.58 3.58v27.92c0 1.98-1.6 3.58-3.58 3.58z" fill="url(#L)"/><path d="m279.63 297.75c-1.98 0-3.58-1.6-3.58-3.58v-27.92c0-1.98 1.6-3.58 3.58-3.58 1.98 0 3.58 1.6 3.58 3.58v27.92c0 1.98-1.61 3.58-3.58 3.58z" fill="url(#M)"/><path d="m351.38 310.83c-.71 0-1.43-.18-2.08-.56l-100.9-58.25c-2-1.15-2.68-3.71-1.53-5.7 1.15-2 3.71-2.68 5.7-1.53l100.9 58.25c2 1.15 2.68 3.71 1.53 5.7-.77 1.35-2.17 2.09-3.62 2.09z" fill="url(#N)"/><path d="m383.79 355.16c-3.79 0-7.86-1.2-12-3.59-13.46-7.77-24.01-26.04-24.01-41.58 0-8.42 3.1-14.84 8.74-18.1 5.63-3.25 12.75-2.73 20.04 1.48 13.46 7.77 24.01 26.04 24.01 41.58 0 8.42-3.1 14.85-8.74 18.1-2.43 1.41-5.15 2.11-8.04 2.11zm-19.22-55.81c-1.24 0-2.35.27-3.28.8-2.52 1.46-3.97 5.04-3.97 9.83 0 12.04 8.81 27.3 19.24 33.32 4.15 2.4 7.98 2.94 10.5 1.48 2.52-1.45 3.97-5.04 3.97-9.83 0-12.04-8.81-27.3-19.24-33.32-2.62-1.51-5.11-2.28-7.22-2.28z" fill="url(#O)"/><path d="m327.87 300.36 5.72-4.19 6.94-5.09.64-18.5.14-4.11s-.37 1.64-1.01 4.11c-1.54 5.91-4.63 16.61-7.98 21.21-.99 1.36-2 2.18-2.99 2.2-5.81.11-1.46 4.37-1.46 4.37z" fill="url(#P)"/><path d="m332.31 293.8 1.27 2.37 6.94-5.09.64-18.5h-.87c-1.53 5.92-4.63 16.62-7.98 21.22z" fill="url(#R)"/><path d="m322.35 325.88 5.52-3.36.36-1.57 4.04-17.66 5.24-3.29 8.06-5.06v-5.11l-5.21-1.14-11.36 11.42-2.45 20.04-.14 1.16z" fill="url(#S)"/><path d="m345.57 294.94-13.3 8.36-2.99 13.06h-4.06l2.65-16 12.49-11.67 5.21 1.14z" fill="#1d1d1b"/><path d="m327.69 328.96 5.52-3.36.47-2.06 3.93-17.17 11.31-7.1c1.25-.78 2-2.15 2-3.62v-2.75l-5.22-1.14-.13.13-8.07 8.11-3.17 3.18-2.38 19.54-.2 1.66z" fill="url(#T)"/><path d="m348.92 299.28-11.31 7.1-2.99 13.07h-4.06l2.65-16 5.55-5.19c1.66-1.56 2.41-3.86 1.96-6.1l-.21-1.07 5.18.68 5.22 1.14v2.75c.01 1.47-.75 2.84-1.99 3.62z" fill="#204ca6"/><path d="m350.92 292.9-3.43 1.85-8.51-4.48-.16-15.02c-.03-2.63 2.83-4.29 5.1-2.96l4.16 2.43 2.86-2.13z" fill="#b2b2b2"/><path d="m342.03 267.38 8.91 5.21s-3.41 2.35-3.41 3.72l-.04 18.45-8.51-4.48-.19-16.89v-.33c-.02-2.35 1.22-4.51 3.24-5.68z" fill="url(#U)"/><path d="m333.22 301.69v1.76l.13.44c.24.81.98 1.32 1.77 1.32.26 0 .52-.05.77-.17.51-.23.88-.68 1.02-1.23l.79-3.1.78-.63c1.36-.28 2.61-.62 3.75-1.02 17.36-5.99 9.69-24.27 8.79-26.28l-.02-.04-.06-.14s-1.28.07-2.5.76c-1.36.77-2.64 2.31-1.96 5.4.89 4.07-5.15 13.27-8.47 18.35-.39.59-.74 1.13-1.04 1.6l-2.52 1.1c-.75.32-1.23 1.06-1.23 1.88z" fill="url(#V)"/><path d="m338.01 297.1 4.22 1.95c15.16-5.23 11.43-20.27 9.65-25.32-.32-.91-1.15-1.55-2.12-1.61l-.72-.05c-1.36.77-3.97 3.5-3.3 6.59.9 4.07-4.41 13.36-7.73 18.44z" fill="url(#W)"/><path d="m331.76 324.39-4.07 4.57 5.52-3.36.47-2.05-1.72-.82z" fill="#1d1d1b"/><path d="m327.87 322.52.36-1.57-1.68-.8-.14 1.16-4.06 4.57z" fill="#1d1d1b"/><path d="m346.85 267.28v2.92l-.01.22c-.05 1.03-.6 1.97-1.49 2.5l-1.45.87-1.01.55c-.64.35-1.4-.62-1.52-1.34 0 0-.03-1.62.84-2.13l1.6-1.24v-1.95z" fill="url(#X)"/><path d="m340.74 266.1.56-.6v-5.32c13.77-5.12 5.42 8.3 5.42 8.3l-5.42 1.58v-3.82z" fill="url(#Y)"/><path d="m338.1 257.1c.23 3.03 1.39 5.82 4.88 5.76l.78 3.33s1.05-1.93 1.77-2.29c1.59-.78 2.65 1.68-1.23 3.54l2.41 1.03 5.36-1.2c1.5-.34 2.75-1.36 3.38-2.76 1.17-2.61 1.69-3.97 1.07-6.3-.49-1.82-2.63-3.95-4.57-5.56-2.84-2.37-6.91-2.77-10.05-.82-2.21 1.39-3.94 3.37-3.8 5.27z" fill="#1d1d1b"/><path d="m316.49 124.01c-7.72 5.31-14.7 2.33-19.24-1.17-3.28-2.53-5.29-5.33-5.41-5.48v-.01l4.72-6.61s3.22 1.86 6.57 3.2c5.65 2.25 11.68 3 3.23-9.27h-3.8l4.43-2.76s22.96 12.85 9.5 22.1z" fill="url(#Z)"/><path d="m294.07 170.34.94-.72-11.83-35.37c-.31-.94-1.55-1.13-2.13-.34l-21.88 29.42h-9.5l7.27-1.43 21.07-35.94 2.37-7.14.81-2.43c-2.46 1.25-5.08 1.87-7.71 2.09-10.22.83-17.24-3.94-17.24-3.94v-2.69l17.88-2.8 15.1-2.2h2l2.61-3.77 1.16.88-.39 4.93 1.94 1.84-6.71 19.29 7.29 39.6 1.46 7.97z" fill="url(#aa)"/><path d="m298.54 106.08-.3-.95 1.64-5.35c-10.58-8.65-9.31 4.86-9.31 4.86l6.14 5.46 1.29-4.19z" fill="url(#ab)"/><path d="m298.6 97.32c2.12.53 2.22 4.11 1.11 3.75-3.45-1.13-4.61.96-4.61.96l-1.26.24-.52 1.69s-.84-4.62-1.5-1.28c-.3 1.96.96 2.82.96 2.82l-1.14.1-1.06-.95s-2.5-9.8 3.29-8.45c2.94.67 3.09.71 4.73 1.12z" fill="url(#ad)"/><path d="m289.24 106.86-2.51 9.3-6.33 2.68-7.13 3.02.23-3.37.64-9.44z" fill="url(#ae)"/><path d="m303.13 113.93-5.88 8.9-1.65 2.5-3.75-7.99v-.01l4.72-6.61c-.01.02 3.21 1.88 6.56 3.21z" fill="url(#af)"/><path d="m278.02 125.98-16.15 27.54 4.27 4.43 16.31-22.16 8.9 26.91 6.13-1.42-7.63-31.25-4.07-6.02z" fill="#1d1d1b"/><path d="m284.27 107.58-2.13 4.17-1.31 4.85-1.42 5.24v.02l-2.49 2.15 1.12 1.97 11.83 4.05 1.99.22v-1.9l4.72-17.61c-7.26.6-7.33-3.88-7.33-3.88z" fill="url(#ag)"/><path d="m298.6 177.59-4.53-7.25.95-.71h2.11z" fill="#204ca6"/><path d="m260.69 161.3-1.51 2.04h-9.5l7.27-1.43z" fill="#204ca6"/><path d="m293.69 102.44.39 4.56 1.49 1.36.99-1.88 1.44-.57-.29.95h-.85l-.74 1.82.81.72-.22.7-4.02-3.57z" fill="url(#ah)"/><path d="m245.54 111.23 2.52 2.13s-1.09 2.6-2.79 1.8c-1.71-.81.27-3.93.27-3.93z" fill="url(#ai)"/><path d="m143.2 356.24c0 2.22-6 4.02-13.4 4.02s-13.4-1.8-13.4-4.02 6-4.02 13.4-4.02 13.4 1.8 13.4 4.02z" fill="url(#aj)" opacity=".7"/><path d="m139.12 356.19-4.47.05-.21-2.76-2.05-26.74-.08-1.18-.86-11.1-.18-2.41.59.3 3.09 1.6.63.32.13 12.72.27 27.08z" fill="url(#ak)"/><path d="m135.02 313.63-.07.32-2.64 11.61-.27 1.13-5.65 24.82 1.09 2.55 2.32 2.18-4.02-.04-1.59-4.1 4.94-25.62 2.32-12.02.41-2.11.06-.31z" fill="url(#al)"/><path d="m140.39 321.51.4 2.82c.11.77-.14 1.55-.68 2.11l-.89-.4-.23-1.55z" fill="url(#am)"/><path d="m138.36 279.32 2.4 8.3s-1.69-.61-4.34-.43-.2-5.74-.2-5.74z" fill="url(#an)"/><path d="m140.14 297.14-2.23 7.54c-.46 1.57-.57 3.21-.31 4.83l1.06 6.64s-1.91 11.11-3.23 10.99c-3.31-.3-5.48-1.2-13.02-.2 0 0 3.01-13.83 7.21-18.02 4.8-4.79-.67-11.32-.67-11.32l4.38-3.85z" fill="url(#ao)"/><path d="m140.96 298.2-2.46 10.07 2.26 15.96-4.03-15.02 1.24-12.18.91-.47c1.11-.56 2.37.43 2.08 1.64z" fill="url(#ap)"/><path d="m140.74 299.11-3.24 2.72.49-4.79-.26-5.08 2.22 1.76c1.08.85 1.56 2.25 1.23 3.59z" fill="url(#aq)"/><path d="m139.61 281.09s-.99.93-1.73.75c0 0-.23 5.38 1.37 6l-.86.13s-1.66-1.43-1.21-4.15c0 0-3.03-.28-.45 2.72 0 0 8.13 10.81.46 12.86 0 0-.63-2.4-5.26-.94-4.63 1.47-11.83 1.55-4.78-8.27 5.26-7.33 4.98-12.47 11.89-11.45-.01 0 1.53.37.57 2.35z" fill="#1d1d1b"/><path d="m124.52 350.4 1.87 1.11 1.09 2.55 2.32 2.18-4.02-.04-1.59-4.1z" fill="#204ca6"/><path d="m139.12 356.19-4.47.05-.21-2.76 1.54.59z" fill="#204ca6"/><ellipse cx="234.9" cy="173.23" fill="url(#ar)" opacity=".7" rx="14.36" ry="3.47"/><path d="m234.37 108.15s10.2-7.91 12.29-20.37l-.81-3.79 1.36 1.78 1.55-3.87 1.28 6.39-1.65.7s-5.15 23.39-13.07 20.76c-2.65-.88-.95-1.6-.95-1.6z" fill="url(#as)"/><path d="m234.9 168.81-4.7.68 3.92-20.76 1-5.29 2.54-13.47-3.35-4.27s-.4.55-.93 1.42c-1.34 2.19-3.53 6.4-2.24 8.83l-.49 6.75v.01l-1.95 27.01-.2 2.8z" fill="url(#at)"/><path d="m239.19 102.57s-2.99 2.42-2.25 4.01l-4.45.94 2.11-6.16z" fill="url(#au)"/><path d="m239.3 100.59-.89-.37-1.77-4.45c-13.21.3-1.77 8.74-1.77 8.74l5.06-.49-1.27-3.18z" fill="url(#av)"/><path d="m233.08 121.82c.21 1.46.29 2.69.31 3.87.01.47 0 .94-.01 1.42-.04 1.84-.15 3.75-.07 6.43.11 3.52.29 7.1.5 10.64.09 1.53.19 3.05.3 4.56.48 6.73 1 13.51 1.48 18.75.08.89.16 1.73.23 2.53.13 1.31.25 2.48.36 3.47l-.1.85-.14 1.15c-.11.91.86 1.55 1.66 1.1l5.79-3.35-6.36.34.28-4.72.04-.7 1.59-26.87v-.07l1.53-25.88c1.23-1.28 1.28-3.29.1-4.62l-3.63-4.12-4.45.94c-.09.29-.16.61-.22.94l-.01.03c-.55 3.14.08 8.21.82 13.31z" fill="url(#aw)"/><path d="m230.13 133.91c.53 2.59.79 5.22.6 7.86l-.07.92v.01l1.81.84c.85.4 1.84.36 2.65-.11l3.82-2.16v-.07l1.53-25.88c1.23-1.28 1.28-3.29.1-4.62l-3.63-4.12-4.45.94s-2.58 2.75-1.83 7.85c.14.97.89 9.55.18 11.1-.83 1.81-1.19 5.1-.71 7.44z" fill="url(#ax)"/><path d="m233.83 115.43s1.35 16.58 7.59 21.73l-.91 3 2.87-1.37v-3.77s-7.02-19.85-7.55-23.73c-.51-3.87-2 4.14-2 4.14z" fill="url(#ay)"/><path d="m234.31 121.11c.02-.59.18-1.23.43-1.86.96-2.45 3.21-4.88 3.32-5-.08-.44-.15-.91-.22-1.39l-1.27-4.8s-2.02-.53-3.38 1.91c-2.56 6.96 1.12 11.14 1.12 11.14z" fill="url(#az)"/><g fill="#1d1d1b"><path d="m237.58 95.77s.21 3.06-1.52 3.06c0 0-.64 7.52.41 7.29 0 0-8.25 2.38-8.25-1.08 0-1.35.21-3.06.47-4.64.48-2.89 2.76-5.08 5.54-5.31 1.8-.15 3.42-.08 3.35.68z"/><path d="m236.81 177.03 6.58-3.8-6.36.34s2.32 1.99-.95.76l-.25 2.05c-.06.54.51.92.98.65z"/><path d="m228.51 172.51 6.4-3.69-4.7.68c.01 1.01-1.44.22-1.44.22h-.06z"/></g><path d="m65.67 332.37s.7 6.94 9.42 12.45l7.59 4.24c2.71 1.51 6.05 1.35 8.6-.42 4.81-3.34 4.62-10.52-.36-13.59l-8.69-5.37z" fill="url(#aA)" opacity=".7"/><path d="m59.62 297.89 13.42 7.75.06 30.96-7.43-4.23c-.99-.57-1.67-1.57-1.82-2.7z" fill="url(#aB)"/><path d="m86.46 297.89-13.42 7.75.06 30.96 7.33-4.23c.99-.57 1.65-1.56 1.8-2.69z" fill="url(#aC)"/><path d="m59.62 297.89 13.42-7.75 13.42 7.75-13.42 7.75z" fill="url(#aD)"/><path d="m73.04 295.31-8.96 5.16 8.96 5.17 8.95-5.17z" fill="#00b9b1"/><path d="m81.99 300.47 4.47-2.58-13.42-7.75v5.17z" fill="url(#aE)"/><path d="m76.34 300.47s5.33-69.5-4.05-70.98 1.13 70.95 1.13 70.95z" fill="url(#aF)"/><path d="m70.71 300.47s-17.9-52.28-8.95-54.88 12.95 54.88 12.95 54.88z" fill="url(#aG)"/><path d="m76.34 300.47s11.59-33.86 5.79-35.54c-5.79-1.68-8.39 35.54-8.39 35.54z" fill="url(#aH)"/><path d="m276.05 167.29-16.87-3.95h-9.5s12.45 7.14 21.5 7.32c0 0-6.84 8.64-2.76 13.01 4.09 4.37 10.03-11.78 7.63-16.38z" fill="url(#aI)" opacity=".7"/><circle cx="350.39" cy="170.39" fill="url(#aJ)" r="5.02"/><circle cx="364.15" cy="178.22" fill="url(#aK)" r="5.02"/><path d="m382.93 186.05c0 2.77-2.25 5.02-5.02 5.02s-5.02-2.25-5.02-5.02 2.25-5.02 5.02-5.02 5.02 2.25 5.02 5.02z" fill="url(#aL)"/><circle cx="391.73" cy="193.91" fill="url(#aM)" r="5.02"/><circle cx="405.25" cy="202.3" fill="url(#aN)" r="5.02"/><circle cx="419.04" cy="210.12" fill="url(#aO)" r="5.02"/><circle cx="432.74" cy="217.81" fill="url(#aP)" r="5.02"/><circle cx="350.39" cy="189.09" fill="url(#aQ)" r="5.02"/><circle cx="364.15" cy="196.91" fill="url(#aR)" r="5.02"/><path d="m382.93 204.74c0 2.77-2.25 5.02-5.02 5.02s-5.02-2.25-5.02-5.02 2.25-5.02 5.02-5.02 5.02 2.25 5.02 5.02z" fill="url(#aS)"/><circle cx="391.73" cy="212.6" fill="url(#aT)" r="5.02"/><path d="m415.87 257.54c-1.31 0-2.64-.34-3.86-1.04l-55.03-32.07c-3.66-2.13-4.9-6.83-2.77-10.49s6.83-4.9 10.49-2.77l55.03 32.07c3.66 2.13 4.9 6.83 2.77 10.49-1.42 2.44-3.99 3.81-6.63 3.81z" fill="url(#aU)"/><path d="m433.89 177.54c-.71 0-1.42-.18-2.08-.56l-29.69-17.3c-1.98-1.15-2.64-3.69-1.49-5.66 1.15-1.98 3.69-2.64 5.66-1.49l29.69 17.3c1.98 1.15 2.64 3.69 1.49 5.66-.77 1.31-2.16 2.05-3.58 2.05z" fill="url(#aV)"/><path d="m433.89 194.45c-.71 0-1.42-.18-2.08-.56l-29.69-17.3c-1.98-1.15-2.64-3.69-1.49-5.66 1.15-1.98 3.69-2.64 5.66-1.49l29.69 17.3c1.98 1.15 2.64 3.69 1.49 5.66-.77 1.32-2.16 2.05-3.58 2.05z" fill="url(#aW)"/><path d="m203.45 406.38s1.41 29.94 29.14 20.66c27.74-9.28 32.68-16.31 20.54-25.31-12.14-9.01-49.68 4.65-49.68 4.65z" fill="url(#aX)" opacity=".7"/><use fill="url(#aY)" xlink:href="#a"/><g clip-path="url(#aZ)"><path d="m247.72 405.77.88-.39c-.03-.07-3.15-6.8-11.28-3.31-3.67 1.57-4.61-.38-5.9-3.1-1.19-2.5-2.55-5.33-6.46-5.35-1.01-.01-1.74-.26-2.24-.78-1.08-1.14-.98-3.46-.87-5.7.11-2.35.21-4.56-1-5.69-.61-.57-1.49-.78-2.61-.65-2.87.33-3.9-1.77-4.98-4-.77-1.59-1.57-3.23-3.11-3.7-1.09-.33-2.39-.04-4 .88-3.3 1.91-3.93 1.27-4.39.81-.23-.24-.53-.53-1-.51-.65.02-.35.98.04.97.05 0 .17.11.27.22.81.82 1.92 1.45 5.56-.65 1.36-.78 2.42-1.05 3.23-.8 1.14.35 1.81 1.73 2.53 3.2 1.07 2.21 2.41 4.95 5.96 4.54.84-.1 1.45.03 1.84.4.89.83.79 2.92.7 4.94-.11 2.44-.23 4.97 1.14 6.41.68.71 1.66 1.08 2.93 1.09 3.31.02 4.47 2.45 5.59 4.8 1.29 2.71 2.63 5.51 7.15 3.57 7.27-3.14 9.91 2.56 10.02 2.8z" fill="url(#a0)"/></g><path d="m227.12 377.39c1.69 7.95 5.63 20.27 13.11 13.27-.77-.54-1.64-1.04-2.6-1.51-3.5-1.67-6.44-4.25-8.47-7.46-.85-1.33-1.53-2.77-2.04-4.3z" fill="url(#a1)"/><path d="m257.58 432.76s1.41 29.94 29.14 20.66c27.74-9.28 32.68-16.31 20.54-25.31s-49.68 4.65-49.68 4.65z" fill="url(#a2)" opacity=".7"/><use fill="url(#a4)" xlink:href="#a8"/><g clip-path="url(#a5)"><path d="m301.85 432.15.88-.39c-.03-.07-3.15-6.8-11.28-3.31-3.67 1.57-4.6-.38-5.9-3.1-1.19-2.5-2.55-5.33-6.46-5.35-1.01-.01-1.74-.26-2.24-.78-1.08-1.14-.98-3.46-.87-5.7.11-2.35.21-4.56-1-5.69-.61-.57-1.49-.78-2.61-.65-2.87.33-3.9-1.77-4.98-4-.77-1.59-1.57-3.23-3.11-3.7-1.09-.33-2.39-.04-4 .88-3.3 1.91-3.93 1.27-4.39.81-.23-.24-.53-.53-1-.51-.65.02-.35.98.04.97.05 0 .17.11.27.22.81.82 1.92 1.45 5.56-.65 1.36-.78 2.42-1.05 3.23-.8 1.14.35 1.81 1.73 2.53 3.2 1.07 2.21 2.41 4.95 5.96 4.54.84-.1 1.45.03 1.84.4.89.83.79 2.92.7 4.94-.11 2.44-.23 4.97 1.14 6.41.68.71 1.66 1.08 2.93 1.09 3.31.02 4.47 2.45 5.59 4.8 1.29 2.71 2.63 5.51 7.15 3.57 7.27-3.14 9.91 2.56 10.02 2.8z" fill="url(#a6)"/></g><path d="m281.26 403.77c1.69 7.95 5.63 20.27 13.11 13.27-.77-.54-1.64-1.04-2.6-1.51-3.5-1.67-6.44-4.25-8.47-7.46-.86-1.32-1.54-2.77-2.04-4.3z" fill="url(#a7)"/></svg>