<svg enable-background="new 0 0 1000 372" viewBox="0 0 1000 372" xmlns="http://www.w3.org/2000/svg"><path d="m56.76 76.16h203.83v203.07h-203.83z" fill="#edeeee"/><path d="m348.62 273.98c-.82-14.83-8.49-25.39-20.57-35.18s-52.39-4.74-52.39-4.74c-.02.08-.04.15-.06.23-3.66-5.14-5.18-13.6-5.73-21.31-.18-2.47-.26-4.86-.28-7.04 6.58-6.16 12.55-13.39 15.33-19.9.47-1.11.92-2.48 1.35-4.04.46.01.92-.05 1.34-.21 3.74-1.45 4.8-8.51 8.8-17.99 1.39-3.29-.31-5.64-1.38-6.41-.02-.02-.05-.02-.07-.04 4.08-8.9 8.39-19.83 8.32-23.34-.22-11.41-4.23-22.81-10.66-32.46-3.33-4.99-7.49-9.3-12.26-12.89-4.73-3.57-10.86-6.62-17.11-8.23v193.56h85.37z" fill="#606061"/><path d="m46.55 99.01c2.65 0 4.81-2.17 4.81-4.81v-24.07h24.07c2.65 0 4.81-2.17 4.81-4.81 0-2.65-2.17-4.81-4.81-4.81h-28.88c-2.65 0-4.81 2.17-4.81 4.81v28.88c-.01 2.64 2.16 4.81 4.81 4.81z"/><path d="m75.43 60.5c2.65 0 4.81 2.17 4.81 4.81s-2.17 4.81-4.81 4.81h-24.07v24.08c0 2.65-2.17 4.81-4.81 4.81-2.65 0-4.81-2.17-4.81-4.81v-28.89c0-2.65 2.17-4.81 4.81-4.81zm0-.95h-28.88c-3.18 0-5.77 2.59-5.77 5.77v28.88c0 3.18 2.59 5.77 5.77 5.77s5.77-2.59 5.77-5.77v-23.12h23.11c3.18 0 5.77-2.59 5.77-5.77s-2.59-5.76-5.77-5.76z" fill="#fff"/><path d="m271.8 60.5h-28.88c-2.65 0-4.81 2.17-4.81 4.81 0 2.65 2.17 4.81 4.81 4.81h24.07v24.08c0 2.65 2.17 4.81 4.81 4.81 2.65 0 4.81-2.17 4.81-4.81v-28.89c0-2.64-2.17-4.81-4.81-4.81z"/><path d="m271.8 60.5c2.65 0 4.81 2.17 4.81 4.81v28.89c0 2.65-2.17 4.81-4.81 4.81-2.65 0-4.81-2.17-4.81-4.81v-24.07h-24.07c-2.65 0-4.81-2.17-4.81-4.81s2.17-4.81 4.81-4.81h28.88m0-.96h-28.88c-3.18 0-5.77 2.59-5.77 5.77s2.59 5.77 5.77 5.77h23.11v23.11c0 3.18 2.59 5.77 5.77 5.77s5.77-2.59 5.77-5.77v-28.89c-.01-3.18-2.59-5.76-5.77-5.76z" fill="#fff"/><path d="m271.32 255.91c-2.65 0-4.81 2.17-4.81 4.81v24.07h-24.07c-2.65 0-4.81 2.17-4.81 4.81 0 2.65 2.17 4.81 4.81 4.81h28.88c2.65 0 4.81-2.17 4.81-4.81v-28.88c0-2.64-2.16-4.81-4.81-4.81z"/><path d="m271.32 255.91c2.65 0 4.81 2.17 4.81 4.81v28.88c0 2.65-2.17 4.81-4.81 4.81h-28.88c-2.65 0-4.81-2.17-4.81-4.81 0-2.65 2.17-4.81 4.81-4.81h24.07v-24.07c-.01-2.64 2.16-4.81 4.81-4.81m0-.95c-3.18 0-5.77 2.59-5.77 5.77v23.11h-23.11c-3.18 0-5.77 2.59-5.77 5.77s2.59 5.77 5.77 5.77h28.88c3.18 0 5.77-2.59 5.77-5.77v-28.88c0-3.19-2.59-5.77-5.77-5.77z" fill="#fff"/><path d="m46.07 294.9h28.88c2.65 0 4.81-2.17 4.81-4.81 0-2.65-2.17-4.81-4.81-4.81h-24.07v-24.08c0-2.65-2.17-4.81-4.81-4.81-2.65 0-4.81 2.17-4.81 4.81v28.88c0 2.65 2.16 4.82 4.81 4.82z"/><path d="m46.07 256.39c2.65 0 4.81 2.17 4.81 4.81v24.07h24.07c2.65 0 4.81 2.17 4.81 4.81 0 2.65-2.17 4.81-4.81 4.81h-28.88c-2.65 0-4.81-2.17-4.81-4.81v-28.88c0-2.65 2.16-4.81 4.81-4.81m0-.96c-3.18 0-5.77 2.59-5.77 5.77v28.88c0 3.18 2.59 5.77 5.77 5.77h28.88c3.18 0 5.77-2.59 5.77-5.77s-2.59-5.77-5.77-5.77h-23.11v-23.11c0-3.18-2.59-5.77-5.77-5.77z" fill="#fff"/><g fill="#00b8af"><path d="m250.02 169.62v-.02h-.02l-.42-.05h-.01l-.5-.06v.03c-.01 0-.03 0-.04 0h-.03-.02-.02c-.01 0-.02 0-.03 0v-.03h-.02l-.25.03-.12.01-.15.02h-.01-.02l-.07.01-.33.04v.01.01c-2.09.46-3.6 2.25-3.58 4.3 0 .37.06.74.16 1.1h-.01l-.02.01.16.41.19.48.03-.02c.01.03.03.05.04.08l-.04.02.35.46.24.31.01-.01h.01c.65.7 1.53 1.19 2.5 1.39v.02l.42.05h.03l.5.06h.01v-.03h.05.02.06v.03h.02l.25-.03.1-.01.16-.02h.01.02l.07-.01.32-.04v-.01h.01v-.01c.96-.22 1.83-.72 2.48-1.44h.01l.01-.02.23-.29.35-.46-.04-.02c.01-.03.03-.05.04-.08l.02.01.01-.03.19-.45.16-.41-.02-.01c.1-.36.15-.73.14-1.1.02-2.05-1.52-3.8-3.61-4.23zm-.99 8.18c-.01 0-.03 0-.04 0h.04c.01 0 .01 0 0 0z" stroke="#00b8af" stroke-miterlimit="10"/><path d="m253.62 212.56.01-.01-.22-.39-.27-.44-.01.01-.02.01c-.02-.03-.04-.05-.06-.08l.02-.02-.41-.4-.29-.27-.01.01h-.01c-.57-.45-1.25-.76-1.98-.91v-.02h-.01-.02l-.41-.05h-.01l-.51-.06v.03c-.01 0-.02 0-.03 0h-.03-.02-.02c-.01 0-.02 0-.03 0v-.02h-.02l-.25.03-.21.03-.05.01h-.01-.02l-.07.01-.33.04v.01h-.01v.01c-.73.16-1.41.49-1.97.95h-.01l-.02.02-.27.25-.41.4.01.01.02.01c-.02.03-.04.05-.06.08l-.02-.01-.02.04-.25.4-.22.38.01.01.01.01c-.25.56-.39 1.16-.38 1.76.02 2.39 2.1 4.34 4.64 4.34h.04.01.01c1.23-.01 2.39-.47 3.25-1.3.88-.84 1.35-1.94 1.34-3.12.01-.61-.14-1.21-.4-1.76zm-4.2-2.11c-.01 0-.03 0-.04 0zm-.02 7.81h-.01z" stroke="#00b8af" stroke-miterlimit="10"/><path d="m253.46 152.18c-.05-.84-.36-1.65-.88-2.34l.01-.01-.3-.33-.35-.37-.01.01-.01.02c-.03-.02-.06-.05-.08-.07l.02-.02-.48-.31-.34-.21-.02.02c-.37-.19-.77-.32-1.18-.41v-.02h-.01-.01l-.42-.05h-.01l-.51-.06v.03c-.01 0-.02 0-.03 0h-.03-.02-.02c-.01 0-.02 0-.03 0v-.02h-.01l-.25.03-.21.03-.05.01h-.01-.02l-.07.01-.33.04v.01h-.01v.01c-.42.09-.81.24-1.19.43l-.01-.01-.04.03-.29.18-.49.31.03.03c-.03.02-.05.05-.08.08l-.02-.02-.04.05-.31.32-.3.33.02.02c-.52.69-.81 1.51-.84 2.35h-.01-.02l.04.47v.04l.04.44h.03c0 .03.01.05.01.08h-.05-.02l.25.64.12.31h.02.01c.61 1.26 1.79 2.16 3.21 2.45v.03l.42.05h.03l.5.06v-.03h.05.02.07v.03h.02l.25-.03.11-.01.16-.02h.01.02l.07-.01.33-.04v-.01h.01v-.02c1.43-.31 2.6-1.24 3.18-2.51h.01l.13-.31.24-.65h-.06c0-.03.01-.05.01-.08h.02l.04-.44v-.01-.03l.03-.47zm-4.62 4.16c-.01 0-.03 0-.04 0 .01-.01.03 0 .04 0z" stroke="#00b8af" stroke-miterlimit="10"/><path d="m243.82 109.05v.08h-.02v.01.31c0 .03-.01.07-.01.1s0 .07.01.1v.03l.02.42h.02c.26 1.83 1.69 3.3 3.6 3.69v.01h.01l.41.05h.01l.54.06v-.03h.05.02.06v.03h.02l.25-.03.18-.02.08-.01h.01.02l.07-.01.32-.04v-.01h.01v-.01c1.91-.42 3.32-1.92 3.54-3.75h.01l.03-.42v-.03c0-.03 0-.07 0-.1 0-.01 0-.02 0-.02l.01-.39h-.02-.02c0-.03 0-.05-.01-.08h.02l-.13-.54-.11-.39h-.02-.02c-.53-1.41-1.81-2.48-3.37-2.8v-.03h-.01-.01-.01l-.41-.05h-.01l-.51-.06v.03c-.01 0-.02 0-.03 0h-.03-.01-.01-.02c-.01 0-.02 0-.03 0v-.03h-.02l-.25.03-.12.01-.15.02h-.01-.02l-.08.01-.32.04v.01h-.01v.02c-1.55.35-2.81 1.43-3.32 2.86h-.02v.01l-.11.39-.13.54zm4.63 4.36c-.01 0-.03 0-.04 0 .01-.01.03 0 .04 0z" stroke="#00b8af" stroke-miterlimit="10"/><path d="m247.63 135.25v.02l.42.05.53.06v-.03h.05.02.06v.03h.01l.25-.03.15-.02.12-.02h.01.02l.07-.01.33-.04v-.01h.01v-.01c2.08-.46 3.6-2.25 3.58-4.3-.01-.63-.16-1.25-.45-1.81l.01-.01-.23-.38-.27-.43-.03.02c-.02-.03-.04-.05-.06-.08l.02-.02-.42-.4-.29-.26-.01.01c-.56-.43-1.22-.73-1.92-.87v-.02h-.02-.01l-.39-.05-.53-.06v.03c-.02 0-.04 0-.05 0h-.02c-.02 0-.04 0-.07 0v-.03h-.01l-.25.03-.12.01-.15.02h-.01-.02l-.07.01-.33.04v.01c-.71.16-1.36.46-1.92.91h-.01l-.02.02-.27.24-.42.4.03.02c-.02.03-.04.05-.06.08l-.02-.01-.02.04-.25.39-.23.38.02.02c-.27.57-.42 1.19-.41 1.82.02 2.05 1.56 3.81 3.65 4.24zm.97-.38h.05s0 0-.01 0-.02 0-.04 0zm.06-7.8c-.02 0-.03 0-.05 0h.01c.01-.01.03 0 .04 0z" stroke="#00b8af" stroke-miterlimit="10"/><path d="m250.26 197.98c2.09-.47 3.61-2.25 3.59-4.31-.01-.6-.15-1.19-.4-1.73l.02-.01-.24-.42-.25-.4-.03.02c-.02-.03-.04-.05-.06-.08l.03-.02-.46-.44-.26-.24-.01.01c-.57-.45-1.26-.77-1.99-.92v-.02h-.02l-.42-.05h-.01l-.51-.06v.03c-.01 0-.03 0-.04 0h-.03-.02-.02c-.01 0-.02 0-.04 0v-.03h-.02l-.25.03-.11.01-.16.02h-.01-.02l-.07.01-.33.04v.01h-.01v.01c-.73.16-1.41.49-1.98.95l-.02.02-.25.22-.46.44.01.01.03.02c-.02.02-.03.05-.05.08l-.01-.01-.02.03-.23.37-.25.42.01.01.01.01c-.25.55-.38 1.14-.37 1.74.02 2.05 1.56 3.81 3.65 4.24v.01h.01l.41.05h.04l.51.06v-.03h.05.02.06v.03h.02l.25-.03.18-.02.08-.01h.01.02l.07-.01zm-1.09-.36h.05s0 0-.01 0-.03 0-.04 0z" stroke="#00b8af" stroke-miterlimit="10"/><path d="m235.19 182 .02-.01-.16-.41-.19-.48-.03.02c-.01-.03-.03-.05-.04-.08l.04-.02-.35-.46-.24-.31-.02.01c-.66-.71-1.54-1.2-2.52-1.4v-.02l-.38-.05-.59-.07v.03h-.01-.03c-.03 0-.07 0-.1 0v-.02l-.49.06-.46.06v.03c-.09.02-.18.04-.26.07l-.01-.02-.37.14-.53.2.02.03c-.04.02-.07.04-.11.06l-.02-.03-.42.3-.36.26.02.03c-.15.13-.28.26-.41.4l-.03-.01-.23.32-.34.46.04.02c-.01.03-.03.05-.04.08l-.03-.02-.18.49-.15.41.02.01c-.09.36-.14.72-.14 1.08 0 .4.07.8.19 1.18l-.02.01.17.4.2.48.03-.02c.02.03.03.06.05.08l-.03.02.36.45.25.31.02-.01c.88.92 2.1 1.44 3.42 1.44h.04c1.35-.01 2.63-.59 3.5-1.56l.02.01.25-.34.32-.43-.03-.02c.02-.03.03-.05.05-.08l.03.02.2-.52.14-.38-.02-.01c.1-.36.15-.73.14-1.11-.04-.35-.1-.72-.2-1.08zm-4.96 5.01c-.09-.01-.17-.03-.26-.04.08.02.17.03.26.04zm-.49-.08c-.09-.02-.17-.05-.25-.07.08.03.16.05.25.07zm-.46-.13c-.08-.03-.16-.07-.24-.1.07.04.15.07.24.1zm-.44-.18c-.08-.04-.15-.08-.23-.13.07.05.15.09.23.13zm-.41-.22c-.08-.05-.15-.1-.22-.15.07.05.14.1.22.15zm-.39-.27c-.08-.06-.15-.13-.22-.2.08.07.15.14.22.2zm2.67-6.9h.06c-.03 0-.06-.01-.08-.01 0 .01.01.01.02.01zm0 7.81c-.08 0-.17-.01-.25-.01.1.01.19.01.29.01-.01 0-.03 0-.04 0z" stroke="#00b8af" stroke-miterlimit="10"/><path d="m206.58 151.79-.01.03.4.17.48.2.01-.03c.04.01.09.03.13.04l-.01.03.56.08.4.06v-.02c.1.01.2.01.29.01h.03c.61-.01 1.21-.13 1.77-.35l.01.02.4-.2.45-.23-.02-.03c.04-.02.07-.04.11-.07l.02.03.43-.39.29-.26-.01-.02c.21-.22.39-.46.54-.72l.02.01.17-.36.25-.51-.04-.01c.01-.02.01-.05.02-.07l.04.01.09-.52.07-.42-.02-.01c.01-.1.01-.2.01-.3-.02-2.39-2.1-4.34-4.64-4.34h-.04c-.25 0-.51.03-.78.08l-.01-.02-.38.1-.56.14.02.03c-.04.02-.08.03-.12.05l-.01-.03-.45.25-.39.22.01.02c-.32.22-.61.48-.87.77l-.02-.01-.23.32-.34.47.04.02c-.01.02-.02.05-.04.08l-.03-.01-.18.49-.15.41.02.01c-.09.35-.13.7-.13 1.05.03 1.54.95 2.97 2.4 3.73zm3.47-7.55c.07.02.13.04.2.07-.07-.03-.13-.05-.2-.07zm-.4-.09c.07.01.14.03.21.05-.07-.02-.14-.04-.21-.05zm-.81 7.73c-.05 0-.09 0-.14-.01.06 0 .11.01.17.01-.01 0-.02 0-.03 0zm3.31-6.25c-.04-.05-.08-.11-.13-.16.05.05.09.11.13.16zm.84 2.31c0-.13-.01-.27-.03-.4.02.13.03.27.03.4zm-.04-.52c-.01-.09-.03-.18-.05-.26.02.08.03.17.05.26zm-.09-.41c-.02-.07-.04-.15-.06-.22.02.07.04.14.06.22zm-.13-.39c-.03-.07-.05-.13-.08-.2.03.07.06.14.08.2zm-.16-.35c-.03-.06-.06-.12-.09-.18.03.06.06.12.09.18zm-.19-.33c-.04-.06-.07-.12-.11-.17.04.05.07.11.11.17zm-.48-.6c-.05-.05-.09-.1-.14-.14zm-1.47-.97c.07.03.13.06.19.08-.06-.02-.12-.06-.19-.08zm.36.16c.06.03.12.07.18.1-.06-.03-.11-.07-.18-.1zm.35.19c.06.04.11.08.17.12-.06-.04-.11-.08-.17-.12zm.32.23c.06.04.11.09.16.13-.06-.05-.11-.09-.16-.13zm-2.63-.88c.07 0 .13.01.2.01-.08 0-.16-.01-.24-.01zm.62.05c-.07-.01-.14-.02-.21-.03.07.01.14.02.21.03z" stroke="#00b8af" stroke-miterlimit="10"/><path d="m244.05 83.49c.01.39.08.78.2 1.14.04.12.09.24.14.37.16.36.36.69.62 1 .76.93 1.86 1.52 3.09 1.66.23.03.41.04.58.04h.03.02c.18 0 .37-.02.59-.04h.01.02c1.22-.16 2.31-.77 3.06-1.71.25-.32.45-.66.6-1.01.05-.13.1-.25.14-.38.11-.37.17-.75.18-1.15v-.03c0-.03 0-.06 0-.1-.02-2.39-2.1-4.34-4.64-4.34h-.04-.02c-1.24.01-2.39.47-3.26 1.3-.88.84-1.35 1.94-1.34 3.12 0 .03 0 .06.01.1zm.65.99c-.05-.16-.09-.33-.12-.49.03.17.07.33.12.49.04.11.08.22.13.33-.05-.1-.09-.21-.13-.33zm4.01 2.75c-.01 0-.02 0-.03 0-.17 0-.34-.01-.5-.03.18.02.35.03.53.03.01 0 .01 0 0 0zm.39-7.79c.07.01.14.02.21.03-.07-.01-.13-.02-.21-.03zm3.03 1.68c.04.05.07.1.1.16-.03-.05-.06-.11-.1-.16zm.21.32c.03.06.06.11.09.17-.03-.06-.06-.11-.09-.17zm.18.34c.03.06.05.13.08.19-.03-.06-.05-.13-.08-.19zm.14.36c.02.07.04.14.06.21-.02-.07-.04-.14-.06-.21zm.17.75c.02.13.02.26.03.4 0-.13-.01-.26-.03-.4zm-.06-.38c.02.08.03.17.04.25-.01-.08-.03-.17-.04-.25zm-.77-1.55c-.04-.05-.07-.1-.11-.14.04.05.08.1.11.14zm-.25-.28c-.04-.04-.08-.09-.13-.13zm-2.23-1.18c.07.01.14.03.2.05-.07-.02-.14-.04-.2-.05zm.39.09c.07.02.13.04.2.07-.07-.02-.13-.05-.2-.07zm.39.13c.06.02.12.05.18.08-.06-.02-.12-.05-.18-.08zm.36.16c.06.03.11.06.17.09-.06-.02-.11-.06-.17-.09zm.34.2c.05.03.1.07.15.11-.04-.04-.09-.08-.15-.11zm.32.22c.05.04.09.08.14.12-.04-.04-.09-.08-.14-.12zm-2.62-.88c.07 0 .13.01.2.01-.08 0-.16-.01-.24-.01zm-.06 0s.01 0 0 0z" stroke="#00b8af" stroke-miterlimit="10"/><path d="m206.34 184.2h.04c1.25-.01 2.41-.48 3.29-1.33.28-.28.53-.59.73-.93.36-.62.56-1.32.58-2.03v-.03c0-.03 0-.07 0-.1 0-.37-.06-.74-.17-1.12-.55-1.9-2.39-3.22-4.47-3.22h-.04c-.53 0-1.07.1-1.58.28-.37.13-.72.3-1.04.51-1.25.83-2 2.19-1.98 3.63.02 2.4 2.1 4.34 4.64 4.34zm-3.32-2.03c.04.05.08.1.13.15-.05-.04-.09-.1-.13-.15zm-.84-2.31c0 .13.01.27.03.4-.02-.13-.03-.27-.03-.4zm.05.52c.01.09.03.18.05.26-.03-.08-.04-.17-.05-.26zm.08.41c.02.08.04.15.06.23-.02-.08-.04-.16-.06-.23zm.13.37c.03.07.05.14.08.21-.03-.07-.06-.14-.08-.21zm.16.36c.03.06.06.13.1.19-.04-.06-.07-.13-.1-.19zm.19.34c.04.06.07.12.11.17-.03-.06-.07-.11-.11-.17zm.49.6c.05.05.09.1.14.14-.05-.04-.1-.09-.14-.14zm3.06 1.27c-.07 0-.13-.01-.2-.01.08 0 .16.01.24.01-.02 0-.03 0-.04 0zm-2.78-1.01c.05.04.1.09.16.13-.06-.04-.11-.09-.16-.13zm.31.24c.06.04.11.08.17.11-.06-.03-.12-.07-.17-.11zm.33.21c.06.03.12.07.18.1-.06-.03-.12-.07-.18-.1zm.35.18c.06.03.12.06.19.08-.06-.03-.12-.06-.19-.08zm.38.14c.07.02.13.05.2.07-.07-.02-.14-.05-.2-.07zm.39.11c.07.02.13.03.2.05-.07-.01-.13-.03-.2-.05zm.4.08.21.03c-.07-.01-.14-.02-.21-.03zm4.53-5.19c.04.1.07.2.1.31-.02-.11-.06-.21-.1-.31zm-.28-.58c.03.05.06.11.09.16-.03-.05-.06-.11-.09-.16zm.15.29c.03.06.06.13.09.2-.03-.07-.06-.14-.09-.2zm-.23-.4c-.03-.05-.06-.1-.1-.15.04.04.07.09.1.15zm-.39-.52c-.04-.04-.08-.09-.12-.13.04.04.08.09.12.13zm.21.25c-.04-.05-.07-.1-.11-.14.03.05.07.09.11.14zm-3.36-1.61c.06 0 .11 0 .17.01-.07 0-.14-.01-.21-.01zm2.92 1.13c-.04-.04-.08-.08-.13-.12.04.04.08.08.13.12zm-.25-.21c-.05-.04-.09-.07-.14-.11.05.03.09.07.14.11zm-.27-.19c-.05-.03-.1-.07-.15-.1.06.03.11.06.15.1zm-.28-.18c-.05-.03-.1-.06-.15-.09zm-.29-.15c-.05-.02-.11-.05-.16-.07.05.02.1.05.16.07zm-.31-.13c-.06-.02-.11-.04-.17-.06.06.02.11.04.17.06zm-.32-.1c-.06-.02-.12-.03-.17-.05.05.01.11.03.17.05zm-.34-.08c-.06-.01-.12-.03-.18-.03.06 0 .12.01.18.03zm-.34-.06c-.06-.01-.12-.02-.18-.02.05.01.11.02.18.02z" stroke="#00b8af" stroke-miterlimit="10"/><path d="m224.08 199.43h-.04c-.53 0-1.07.1-1.58.28-.37.13-.72.3-1.04.51-1.25.83-2 2.19-1.98 3.63.02 2.39 2.1 4.34 4.64 4.34h.04c1.25-.01 2.41-.48 3.29-1.33.28-.28.53-.59.73-.93.36-.62.56-1.32.58-2.03v-.03c0-.03 0-.07 0-.11 0-.37-.06-.74-.17-1.12-.55-1.88-2.39-3.21-4.47-3.21zm4.01 3.36c-.03-.1-.06-.21-.1-.31.03.1.07.2.1.31zm-.15-.41c-.03-.06-.05-.13-.08-.19.03.06.05.12.08.19zm-.14-.31c-.03-.06-.06-.12-.09-.17.03.06.06.12.09.17zm-.17-.28c-.03-.05-.07-.11-.1-.16.03.05.06.11.1.16zm-.4-.52c-.04-.04-.08-.09-.12-.13.04.04.08.09.12.13zm.21.25c-.04-.05-.07-.1-.11-.14.04.05.07.09.11.14zm-3.36-1.61c.06 0 .11 0 .16.01-.07 0-.13-.01-.2-.01zm2.92 1.13c-.04-.04-.08-.08-.13-.12.04.04.08.08.13.12zm-.25-.21c-.05-.04-.09-.07-.14-.11.05.03.1.07.14.11zm-.27-.2c-.05-.03-.09-.06-.14-.09.05.03.1.06.14.09zm-.28-.17c-.05-.03-.1-.06-.15-.08.05.02.1.05.15.08zm-.29-.15c-.05-.02-.11-.05-.16-.07.05.02.11.05.16.07zm-.31-.13c-.06-.02-.11-.04-.17-.06.06.02.11.04.17.06zm-.33-.1c-.06-.02-.11-.03-.17-.05.06.01.12.03.17.05zm-.33-.08c-.06-.01-.11-.02-.17-.03.05 0 .11.01.17.03zm-.35-.06c-.06-.01-.12-.02-.18-.02.07.01.12.01.18.02zm-2.11 7.48c-.07-.03-.13-.06-.19-.08.06.02.12.05.19.08zm-.37-.16c-.06-.03-.12-.07-.18-.1.06.03.12.07.18.1zm-.34-.2c-.06-.04-.11-.08-.17-.12.05.05.11.09.17.12zm-1.02-.9c.04.05.09.11.13.16-.05-.05-.09-.11-.13-.16zm-.84-2.31c0 .13.01.27.03.4-.02-.13-.03-.27-.03-.4zm.05.52c.01.09.03.18.05.26-.03-.08-.04-.17-.05-.26zm.09.41c.02.07.04.15.06.22-.03-.07-.04-.14-.06-.22zm.12.38c.03.07.05.14.08.2-.03-.07-.05-.13-.08-.2zm.16.35c.03.06.06.13.1.19-.04-.06-.07-.13-.1-.19zm.19.33c.04.06.07.12.12.18-.04-.06-.08-.12-.12-.18zm.49.61c.05.05.09.1.14.15-.05-.05-.1-.11-.14-.15zm.44.39c-.05-.04-.11-.09-.16-.13.05.04.1.09.16.13zm2.62.88c-.07 0-.14-.01-.2-.01.08 0 .16.01.24.01-.01 0-.03 0-.04 0zm-1.41-.24c.07.02.13.05.2.07-.07-.02-.14-.05-.2-.07zm.39.11c.07.02.14.04.21.05-.08-.01-.14-.03-.21-.05zm.4.08c.07.01.14.02.22.03-.08-.01-.15-.02-.22-.03z" stroke="#00b8af" stroke-miterlimit="10"/><path d="m215.65 109.94.37-.15.53-.21-.02-.03c.04-.02.07-.05.11-.07l.02.03.41-.3.49-.35-.04-.03c.02-.02.04-.05.07-.07l.02.02.28-.34.32-.39-.03-.02c.05-.07.09-.15.13-.23h.02l.14-.31.28-.61-.06-.01c.01-.03.01-.05.02-.08h.03l.06-.45.07-.5h-.03c0-.04 0-.09 0-.13 0-.2-.03-.41-.06-.62l.02-.01-.09-.36-.15-.59-.04.02c-.01-.03-.03-.05-.04-.08l.03-.02-.25-.43-.23-.4-.03.02c-.86-1.16-2.27-1.87-3.79-1.87h-.04c-1.14.01-2.2.4-3.04 1.11l-.02-.01-.31.32-.36.37.03.02c-.02.03-.05.05-.07.08l-.03-.03-.28.51-.19.34.02.01c-.14.32-.24.65-.29.99h-.02l-.03.42v.04.01l-.03.49h.04v.08h-.04l.12.54.09.4h.02c.32.96.99 1.81 1.9 2.37l.44.27.24-.46.97-1.89.14.01-.97 1.89-.26.51.54.17c.47.14.95.22 1.43.22h.04c.47 0 .93-.08 1.37-.21zm1.95-6.47c-.01-.01-.02-.03-.03-.04.02.02.03.03.03.04zm-.15-.18c-.07-.08-.14-.17-.22-.24.07.07.14.15.22.24zm-2.1-1.29c.1.03.19.06.28.09-.09-.03-.18-.07-.28-.09zm.53.17c.09.04.18.08.26.13-.09-.05-.17-.09-.26-.13zm.49.24c.09.05.16.1.24.16-.08-.06-.16-.12-.24-.16zm.45.29c.08.06.15.13.23.19-.08-.06-.15-.13-.23-.19zm-2.59-.85c.1 0 .19.01.29.02-.11-.01-.22-.02-.33-.02zm.86.09c-.1-.02-.19-.04-.29-.06.1.02.19.04.29.06zm-.86 7.72c-.01 0-.02 0-.03 0h.07c-.02 0-.03 0-.04 0zm-.68-.05h.02s-.01 0-.02 0z" stroke="#00b8af" stroke-miterlimit="10"/><path d="m197.31 106.51h.04c.13 0 .27-.01.43-.02.4-.04.8-.13 1.18-.27 1.63-.59 2.78-2.01 2.96-3.64l.02-.18c.03-.38 0-.77-.09-1.16-.16-.74-.53-1.43-1.05-2-.28-.3-.59-.56-.93-.77-.76-.47-1.64-.72-2.55-.72h-.04c-1.23.01-2.39.47-3.26 1.3-.88.84-1.35 1.94-1.34 3.12.02 2.39 2.1 4.34 4.63 4.34zm-3.06-1.75c.05.05.09.1.14.14-.05-.04-.09-.09-.14-.14zm-.26-.29c.04.05.08.11.13.16-.04-.05-.08-.11-.13-.16zm3.32 1.56c-.07 0-.13-.01-.2-.01.08 0 .16.01.24.01-.01 0-.03 0-.04 0zm-2.78-1.01c.05.04.1.09.15.13-.05-.04-.1-.08-.15-.13zm.31.24c.06.04.11.08.17.11-.06-.03-.11-.07-.17-.11zm.33.21c.06.03.12.07.18.1-.06-.03-.12-.07-.18-.1zm.36.18c.06.03.12.06.19.08-.07-.03-.13-.06-.19-.08zm.37.14c.07.02.13.05.2.07-.07-.02-.14-.04-.2-.07zm.39.11c.07.02.14.03.21.05-.08-.01-.14-.03-.21-.05zm.4.08c.07.01.14.02.21.03-.07-.01-.14-.02-.21-.03zm1.24-7.72c.12.02.24.05.36.08-.12-.03-.24-.06-.36-.08zm.6.13c.13.04.26.09.38.14-.12-.05-.25-.1-.38-.14zm1.53.8c-.14-.12-.29-.22-.44-.32-.17-.1-.34-.2-.52-.28.18.08.36.17.52.28.15.1.3.2.44.32zm-2.74-.97c.12 0 .23.02.35.02-.13-.01-.25-.03-.38-.02zm-3.44 6.11c-.04-.06-.08-.12-.11-.17.03.06.07.11.11.17zm-.21-.32c-.04-.06-.07-.12-.1-.19.03.07.06.13.1.19zm-.18-.34c-.03-.06-.05-.13-.08-.2.03.07.05.14.08.2zm-.14-.35c-.02-.07-.04-.14-.06-.21.02.07.04.14.06.21zm-.11-.38c-.02-.07-.03-.15-.04-.23.02.08.03.16.04.23zm-.06-.38c-.01-.1-.02-.2-.02-.3 0 .09.01.2.02.3z" stroke="#00b8af" stroke-miterlimit="10"/><path d="m191.22 125.46c.16 0 .34-.01.52-.03.41-.05.81-.15 1.19-.29 1.77-.69 2.9-2.29 2.88-4.09-.02-1.7-1.09-3.25-2.73-3.95-.37-.16-.77-.27-1.18-.33-.26-.04-.5-.06-.74-.06h-.04c-1.23.01-2.39.47-3.26 1.3-.88.84-1.35 1.94-1.34 3.12.01.8.25 1.59.7 2.27.22.34.49.64.8.91.86.75 1.97 1.16 3.14 1.16zm-.05-.47c-.07 0-.13-.01-.2-.01.08 0 .16.01.24.01-.01 0-.02 0-.04 0zm1.59-.3c-.17.07-.34.12-.52.17.18-.05.35-.1.52-.17.38-.15.73-.35 1.05-.59-.32.24-.67.44-1.05.59zm-1.26-7.5c.11.01.23.02.34.04-.11-.02-.23-.03-.34-.04zm-.33-.01c.07 0 .15.01.22.01-.08 0-.17-.01-.25-.01zm-2.53 7c-.1-.07-.2-.15-.29-.23.09.08.19.15.29.23zm2.15.79c-.07-.01-.14-.02-.21-.03.06.01.13.02.21.03zm-.4-.05c-.07-.01-.14-.03-.21-.05.07.02.14.03.21.05zm-.38-.09c-.07-.02-.14-.04-.21-.07.07.03.14.05.21.07zm-.37-.12c-.07-.03-.13-.06-.2-.09.07.03.13.07.2.09zm-.35-.15c-.07-.03-.14-.07-.2-.11.06.04.13.08.2.11zm-.33-.18c-.07-.04-.14-.09-.21-.14.06.05.13.1.21.14z" stroke="#00b8af" stroke-miterlimit="10"/><path d="m217.75 86.96c.87 1.2 2.3 1.91 3.83 1.91h.04c1.07-.01 2.12-.37 2.94-1.02.31-.24.59-.53.82-.85.56-.75.84-1.63.84-2.54 0-.29-.04-.59-.1-.87-.08-.35-.21-.71-.39-1.05-.79-1.49-2.38-2.42-4.14-2.42h-.04c-1.23.01-2.39.47-3.26 1.3-.88.84-1.35 1.94-1.34 3.12 0 .47.09.93.25 1.37.12.37.31.73.55 1.05zm.39-.28c.09.13.2.25.31.37-.12-.11-.22-.24-.31-.37zm3.44 1.71c-.09 0-.18-.01-.27-.02.1.01.2.02.31.02-.02 0-.03 0-.04 0zm-3.02-1.22c.08.07.15.15.23.22-.08-.07-.15-.15-.23-.22zm.39.34c.08.06.15.12.23.18-.08-.06-.16-.12-.23-.18zm.41.28c.08.05.16.1.25.14-.09-.04-.17-.1-.25-.14zm.45.23c.09.04.17.08.26.11-.09-.03-.18-.08-.26-.11zm.47.17c.09.03.18.06.27.08-.09-.02-.18-.05-.27-.08zm.51.13c.09.02.18.04.28.05-.1-.02-.19-.04-.28-.05zm3.47-.85c.28-.22.53-.48.74-.76-.21.28-.46.54-.74.76zm-.01-5.97c.09.07.16.15.24.22-.08-.08-.15-.15-.24-.22zm.76.79c.11.15.2.3.29.46-.08-.16-.18-.31-.29-.46zm-.12-.14c-.08-.09-.15-.19-.23-.28.09.09.16.18.23.28zm-3.31-1.57c.1 0 .2.01.3.02-.11-.01-.23-.02-.34-.02.02.01.03 0 .04 0zm2.47.78c-.09-.06-.17-.12-.26-.18.09.06.17.12.26.18zm-.48-.29c-.09-.05-.18-.1-.28-.14.09.04.18.09.28.14zm-.53-.23c-.1-.03-.19-.07-.3-.1.1.03.2.07.3.1zm-.56-.15c-.1-.02-.2-.05-.31-.06.1.01.2.03.31.06z" stroke="#00b8af" stroke-miterlimit="10"/><path d="m194.16 159.94c.21 0 .42-.02.67-.06.41-.06.8-.17 1.17-.32.69-.29 1.29-.74 1.76-1.3.26-.31.47-.64.63-1 .25-.56.37-1.14.37-1.75-.01-1.15-.49-2.23-1.34-3.04-.28-.27-.61-.51-.96-.7-.71-.39-1.52-.6-2.33-.6h-.04c-.06 0-.12 0-.17.01h-.06c-.42.02-.82.1-1.2.22-1.91.6-3.18 2.29-3.17 4.19.02 2.39 2.1 4.34 4.64 4.34zm0-.47c-.01 0-.03 0-.04 0-.07 0-.13-.01-.2-.01.08 0 .16.01.24.01.1 0 .21-.01.31-.02-.11.01-.21.01-.31.02zm.52-7.78c.11.01.22.04.33.06-.11-.02-.22-.04-.33-.06zm2.72 6.27c.23-.27.42-.57.56-.89-.15.33-.34.62-.56.89zm-.72-5.48c-.14-.11-.3-.2-.45-.29-.16-.09-.32-.16-.49-.23.17.07.33.14.49.23.15.09.31.19.45.29zm-1.46-.68c.12.03.24.07.35.11-.11-.04-.23-.08-.35-.11zm-1.1-.14c.11 0 .21.01.31.02-.12-.01-.23-.02-.35-.02zm-.41 7.79c-.07-.01-.14-.02-.22-.03.08.01.15.02.22.03zm-.41-.06c-.07-.01-.14-.03-.21-.05.07.02.14.04.21.05zm-.4-.09c-.07-.02-.13-.04-.2-.07.07.02.14.05.2.07zm-2.74-2.55c-.02-.07-.04-.14-.06-.21.02.07.03.14.06.21zm-.11-.37c-.02-.08-.03-.17-.04-.25.01.08.02.17.04.25zm-.06-.39c-.02-.13-.02-.26-.03-.4 0 .14.01.27.03.4zm.81 1.92c.04.05.08.11.13.16-.05-.06-.09-.11-.13-.16zm-.58-1c.03.07.05.13.08.2-.03-.07-.05-.13-.08-.2zm.16.35c.03.06.06.12.1.18-.04-.05-.07-.11-.1-.18zm.19.34c.04.06.07.12.11.17-.03-.06-.07-.12-.11-.17zm.49.6c.05.05.09.1.14.14-.05-.05-.1-.1-.14-.14zm1.46.97c-.07-.03-.13-.06-.19-.08.06.02.13.05.19.08zm-.36-.17c-.06-.03-.12-.07-.18-.1.06.04.12.07.18.1zm-.35-.19c-.06-.04-.11-.08-.17-.11.06.04.12.08.17.11zm-.32-.22c-.05-.04-.1-.09-.15-.13.05.04.1.09.15.13z" stroke="#00b8af" stroke-miterlimit="10"/><path d="m209.24 265.2c-.04 0-.09 0-.13 0-2.45 0-4.43 1.9-4.51 4.31-.04 1.18.39 2.3 1.2 3.16.83.88 1.95 1.38 3.16 1.41h.13c2.45 0 4.43-1.9 4.51-4.32.04-1.18-.39-2.3-1.2-3.16-.82-.86-1.95-1.36-3.16-1.4zm2.21 7.66c-.06.04-.11.08-.17.12.06-.04.11-.08.17-.12zm-.32.21c-.06.03-.12.07-.18.1.06-.04.12-.07.18-.1zm-.35.17c-.06.03-.12.06-.19.08.07-.02.13-.05.19-.08zm-.36.15c-.06.02-.13.05-.2.06.07-.02.14-.04.2-.06zm-1.19-7.71c-.09 0-.18 0-.27.01.05 0 .1-.01.15-.01zm-.47.01c-.07.01-.14.02-.21.03zm-.4.06c-.07.01-.13.03-.2.04.07-.01.14-.03.2-.04zm-.38.09c-.07.02-.13.04-.19.06.06-.02.13-.04.19-.06zm-.37.12c-.06.02-.12.05-.19.08.07-.02.13-.05.19-.08zm-.35.16c-.06.03-.12.07-.18.1.06-.03.12-.07.18-.1zm-.33.19c-.06.04-.11.08-.17.12.06-.04.11-.08.17-.12zm-.31.22c-.05.04-.1.09-.16.13.05-.04.1-.09.16-.13zm-.29.25c-.05.05-.1.1-.14.15.04-.05.09-.1.14-.15zm-.27.27c-.05.05-.09.11-.13.16.04-.05.09-.11.13-.16zm-.95 2.08c-.02.13-.03.27-.03.4 0-.14.01-.27.03-.4zm.71-1.78c-.04.06-.08.12-.12.18.05-.06.08-.12.12-.18zm-.2.32c-.04.06-.07.13-.1.19.03-.07.06-.13.1-.19zm-.18.34c-.03.07-.06.14-.08.21.02-.08.05-.14.08-.21zm-.15.36c-.03.07-.05.15-.07.23.03-.08.05-.16.07-.23zm-.11.37c-.02.08-.03.17-.05.26.02-.09.03-.18.05-.26zm3.8 4.87c-.42-.01-.82-.09-1.19-.21.37.12.77.2 1.19.21.09 0 .18 0 .27-.01-.05 0-.1.01-.15.01-.04 0-.08 0-.12 0zm1.07-.11c-.07.02-.13.03-.2.05.06-.02.13-.04.2-.05zm-.39.07c-.07.01-.14.02-.21.03zm1.93-.81c.05-.04.1-.09.16-.13-.05.04-.1.08-.16.13zm.29-.25c.05-.05.1-.1.14-.15-.04.05-.09.1-.14.15zm.27-.27c.05-.05.09-.11.13-.16-.05.05-.09.1-.13.16zm.95-2.08c.02-.13.03-.27.03-.4 0 .13-.02.27-.03.4zm-.72 1.78c.04-.06.08-.12.11-.17-.03.05-.06.11-.11.17zm.21-.32c.04-.06.07-.13.1-.19-.03.06-.06.13-.1.19zm.18-.34c.03-.07.06-.14.08-.21-.02.07-.05.14-.08.21zm.15-.36c.03-.07.05-.15.07-.23-.03.08-.05.16-.07.23zm.1-.37c.02-.08.03-.17.05-.26-.01.09-.03.17-.05.26z" stroke="#00b8af" stroke-miterlimit="10"/><path d="m178.24 265.85c-.04 0-.09 0-.13 0-2.45 0-4.43 1.9-4.51 4.31-.04 1.18.39 2.3 1.2 3.16.83.88 1.95 1.38 3.17 1.41h.13c2.45 0 4.43-1.9 4.51-4.32.04-1.17-.39-2.3-1.2-3.16-.83-.86-1.95-1.37-3.17-1.4zm2.8 1.72c-.35-.37-.78-.67-1.25-.89.47.22.9.52 1.25.89zm-2.81-1.24c-.09 0-.18 0-.27.01.05 0 .1-.01.15-.01.04-.01.08 0 .12 0zm-.47.01c-.07.01-.14.02-.21.03.08-.01.15-.02.21-.03zm-.39.05c-.07.01-.13.03-.2.04.06-.01.13-.02.2-.04zm-.39.09c-.07.02-.13.04-.19.06.07-.01.13-.04.19-.06zm-.36.13c-.06.02-.12.05-.19.08.06-.03.12-.05.19-.08zm-.36.16c-.06.03-.12.07-.18.1.07-.04.12-.07.18-.1zm-.33.19c-.06.04-.11.08-.17.12.06-.04.11-.08.17-.12zm-.31.22c-.05.04-.1.09-.16.13.05-.04.1-.09.16-.13zm-.29.25c-.05.05-.1.1-.14.15.04-.06.09-.11.14-.15zm-.27.27c-.05.05-.09.11-.13.16.05-.05.09-.11.13-.16zm-.92 3.28c-.05-.26-.07-.53-.06-.8 0-.14.02-.27.03-.4-.02.13-.03.27-.03.4-.01.27.01.54.06.8s.12.51.21.75c-.09-.24-.17-.49-.21-.75zm.69-2.98c-.04.06-.08.12-.12.17.04-.06.08-.12.12-.17zm-.21.32c-.04.06-.07.12-.1.19.03-.07.06-.13.1-.19zm-.18.34c-.03.07-.06.13-.08.2.03-.07.05-.14.08-.2zm-.14.35c-.03.07-.04.15-.07.22.02-.07.04-.14.07-.22zm-.11.38c-.02.08-.03.17-.05.25.01-.08.03-.17.05-.25zm.87 3.49c.14.16.29.31.46.45-.17-.14-.32-.29-.46-.45zm2.93 1.38c.09 0 .18 0 .27-.01-.05 0-.1.01-.15.01s-.08 0-.12 0zm1.8-.37c-.06.03-.12.06-.19.08.06-.02.12-.05.19-.08zm-.37.14c-.06.02-.13.04-.19.06.07-.01.13-.03.19-.06zm-.37.11c-.07.02-.13.03-.2.05.07-.01.13-.03.2-.05zm-.39.08c-.07.01-.14.02-.21.03.07-.02.14-.03.21-.03zm1.29-.41c.06-.03.12-.07.18-.1-.06.04-.12.07-.18.1zm.33-.19c.06-.04.11-.08.17-.11-.05.04-.11.08-.17.11zm.32-.22c.05-.04.1-.09.15-.13-.05.05-.1.09-.15.13zm.29-.24c.05-.05.1-.1.14-.15-.05.05-.09.1-.14.15zm.26-.28c.04-.05.09-.11.13-.16-.04.06-.08.11-.13.16zm.95-2.07c.02-.13.03-.27.03-.4 0 .13-.01.26-.03.4zm-.71 1.77c.04-.06.08-.12.11-.17-.03.06-.07.12-.11.17zm.21-.31c.04-.06.07-.13.1-.19-.04.06-.07.12-.1.19zm.17-.34c.03-.07.06-.14.08-.2-.02.06-.04.13-.08.2zm.15-.36c.03-.07.04-.15.07-.22-.03.07-.05.15-.07.22zm.11-.38c.02-.08.03-.17.05-.26-.02.09-.03.18-.05.26zm.1-.79c.01-.25-.01-.5-.05-.74.04.23.06.48.05.74zm-.27-1.55c-.09-.24-.21-.47-.35-.68.14.21.26.44.35.68z" stroke="#00b8af" stroke-miterlimit="10"/><path d="m149.26 265.84c-.04 0-.09 0-.13 0-2.45 0-4.43 1.9-4.51 4.32-.04 1.18.39 2.3 1.2 3.16.83.88 1.95 1.38 3.17 1.41h.13c2.45 0 4.43-1.9 4.51-4.31.04-1.18-.39-2.3-1.2-3.16-.83-.88-1.95-1.38-3.17-1.42zm-.01.48c.69.02 1.34.21 1.9.53-.56-.32-1.21-.51-1.9-.53-.09 0-.18 0-.27.01.05 0 .1-.01.15-.01zm-.47.01c-.07.01-.14.02-.21.03.07-.01.14-.02.21-.03zm-.39.06c-.07.01-.13.03-.2.04.06-.01.13-.03.2-.04zm-.39.09c-.07.02-.13.04-.19.06.06-.02.13-.04.19-.06zm-.37.12c-.06.03-.12.05-.19.08.07-.02.13-.05.19-.08zm-.35.16c-.06.03-.12.07-.18.1.06-.03.12-.07.18-.1zm-.33.19c-.06.04-.11.08-.17.12.06-.04.11-.08.17-.12zm-.31.22c-.05.04-.1.09-.16.13.05-.04.1-.09.16-.13zm-.29.25c-.05.05-.1.1-.14.15.04-.05.09-.1.14-.15zm-.27.27c-.05.05-.09.11-.13.16.04-.05.09-.11.13-.16zm-.24.3c-.04.06-.08.12-.11.17.04-.05.07-.11.11-.17zm-.2.32c-.04.06-.07.12-.1.19.03-.07.06-.13.1-.19zm-.18.34c-.03.07-.05.13-.08.2.02-.07.05-.14.08-.2zm-.15.36c-.02.07-.04.15-.06.22.02-.08.04-.15.06-.22zm-.11.37c-.02.08-.03.16-.05.25.02-.08.04-.17.05-.25zm-.07.39c-.02.12-.03.24-.03.37.01-.13.02-.25.03-.37zm.11 1.58c.14.5.38.96.7 1.36-.32-.39-.55-.85-.7-1.36zm3.76 2.9c-.14 0-.28-.01-.41-.03-.4-.05-.79-.16-1.15-.32.36.16.74.27 1.15.32.14.01.27.02.41.03.09 0 .18 0 .27-.01-.05 0-.1.01-.15.01-.04 0-.08 0-.12 0zm2.15-.54c-.06.03-.12.07-.18.1.06-.04.12-.07.18-.1zm-.35.17c-.06.03-.12.06-.19.08.07-.02.13-.05.19-.08zm-.36.15c-.06.02-.13.05-.2.06.07-.02.14-.04.2-.06zm-.37.1c-.07.02-.13.03-.2.05.06-.01.13-.03.2-.05zm-.39.08c-.07.01-.14.02-.21.03.07-.01.14-.02.21-.03zm1.62-.59c.06-.04.11-.08.17-.12-.06.04-.11.08-.17.12zm.31-.22c.05-.04.11-.09.16-.13-.05.04-.1.08-.16.13zm.29-.25c.05-.05.1-.1.15-.15-.05.05-.1.1-.15.15zm.27-.27c.05-.05.09-.11.13-.16-.04.05-.09.1-.13.16zm.98-2.48c0 .14-.02.27-.03.4.01-.13.03-.27.03-.4.01-.41-.04-.81-.14-1.18.1.37.15.77.14 1.18zm-.75 2.18.12-.18c-.04.06-.07.12-.12.18zm.21-.32c.04-.06.07-.13.1-.19-.03.06-.06.13-.1.19zm.18-.34c.03-.07.06-.14.09-.21-.03.07-.06.14-.09.21zm.15-.36c.03-.07.05-.15.07-.23-.03.08-.05.16-.07.23zm.1-.37c.02-.09.03-.18.05-.27-.01.09-.02.18-.05.27z" stroke="#00b8af" stroke-miterlimit="10"/><path d="m155.58 246.39c-.04 0-.09 0-.13 0-2.45 0-4.43 1.9-4.51 4.32-.04 1.17.39 2.3 1.2 3.16.83.88 1.95 1.38 3.16 1.41h.13c2.45 0 4.43-1.9 4.51-4.31.04-1.18-.39-2.3-1.2-3.16-.82-.89-1.95-1.39-3.16-1.42zm3.35 2.46c-.22-.37-.49-.71-.82-.99.33.28.6.62.82.99zm-.9-1.06c-.12-.1-.24-.18-.36-.27.13.09.25.18.36.27zm-1.55-.79c-.17-.04-.33-.08-.51-.1.18.02.35.06.51.1zm.64 7.43c-.06.03-.12.06-.19.08.07-.02.13-.05.19-.08zm-.36.14c-.06.02-.13.05-.2.06.07-.01.14-.04.2-.06zm-.37.11c-.07.02-.13.03-.2.05.06-.02.13-.03.2-.05zm-.4.07c-.07.01-.14.02-.21.03.08-.01.15-.02.21-.03zm-.42-7.88c-.09 0-.18 0-.27.01.05 0 .1-.01.15-.01.04-.01.08-.01.12 0zm-.47.01c-.07.01-.14.02-.21.03.07-.01.14-.02.21-.03zm-.4.05c-.07.01-.13.03-.2.04.07-.01.14-.02.2-.04zm-.38.09c-.07.02-.13.04-.19.06.06-.01.13-.04.19-.06zm-.37.13c-.06.02-.12.05-.18.08.06-.03.12-.06.18-.08zm-.35.16c-.06.03-.12.07-.18.1.06-.04.12-.07.18-.1zm-.33.19c-.06.04-.11.08-.17.11.06-.04.11-.08.17-.11zm-.31.22c-.05.04-.1.09-.15.13.04-.05.09-.09.15-.13zm-.29.25c-.05.05-.09.1-.14.14.04-.05.09-.1.14-.14zm-.27.27c-.04.05-.09.1-.13.16.05-.06.09-.11.13-.16zm-.95 2.08c-.02.13-.03.27-.03.4 0-.14.01-.27.03-.4zm.71-1.78c-.04.06-.08.12-.11.17.04-.06.07-.12.11-.17zm-.2.32c-.04.06-.07.12-.1.19.03-.07.06-.13.1-.19zm-.18.34c-.03.07-.06.13-.08.2.02-.07.05-.14.08-.2zm-.15.35c-.03.07-.04.15-.07.22.03-.07.05-.14.07-.22zm-.11.38c-.02.08-.03.17-.05.26.02-.09.03-.18.05-.26zm3.8 4.87c.09 0 .18 0 .27-.01-.05 0-.1.01-.15.01-.04 0-.08 0-.12 0zm1.97-.45c.06-.03.12-.07.18-.1-.06.04-.12.07-.18.1zm.33-.19c.06-.04.11-.08.17-.12-.06.05-.11.09-.17.12zm.31-.22c.05-.04.1-.09.16-.13-.05.05-.1.09-.16.13zm.29-.24c.05-.05.1-.1.14-.15-.04.05-.09.1-.14.15zm.27-.28c.05-.05.09-.11.13-.16-.04.05-.09.11-.13.16zm.95-2.07c.02-.13.03-.27.03-.4 0 .13-.01.26-.03.4zm-.71 1.77c.04-.06.08-.12.12-.18-.05.07-.08.13-.12.18zm.2-.31c.04-.06.07-.13.1-.19-.03.06-.06.12-.1.19zm.18-.34c.03-.07.06-.14.08-.21-.02.07-.05.14-.08.21zm.15-.36c.03-.07.04-.15.07-.22-.03.07-.05.15-.07.22zm.11-.38c.02-.08.03-.17.05-.26-.02.09-.03.18-.05.26z" stroke="#00b8af" stroke-miterlimit="10"/><path d="m164.02 231.79c-.04 0-.09 0-.13 0-2.45 0-4.43 1.9-4.51 4.31-.04 1.18.39 2.3 1.2 3.16.83.88 1.95 1.38 3.17 1.41h.13c2.45 0 4.43-1.9 4.51-4.31.04-1.17-.39-2.3-1.2-3.16-.83-.87-1.95-1.37-3.17-1.41zm-.01.48c-.09 0-.18 0-.27.01.05 0 .1-.01.15-.01zm-.47.02c-.07.01-.14.02-.21.03.08-.02.14-.03.21-.03zm-.39.05c-.07.01-.13.03-.2.04.06-.01.13-.03.2-.04zm-.39.09c-.07.02-.13.04-.19.06.06-.02.13-.04.19-.06zm-.36.12c-.06.03-.12.05-.19.08.06-.02.12-.05.19-.08zm-.36.16c-.06.03-.12.07-.18.1.07-.03.12-.07.18-.1zm-.33.19c-.06.04-.11.08-.17.11.06-.03.11-.07.17-.11zm-.31.22c-.05.04-.1.09-.15.13.04-.04.09-.09.15-.13zm-.29.25c-.05.05-.1.1-.14.15.04-.05.09-.1.14-.15zm-.27.27c-.05.05-.09.11-.13.16.05-.05.09-.1.13-.16zm-.23.3c-.04.06-.08.11-.11.17.03-.05.07-.11.11-.17zm-.21.32c-.04.06-.07.12-.1.19.03-.07.06-.13.1-.19zm-.18.34c-.03.07-.06.13-.08.2.03-.07.05-.13.08-.2zm-.14.36c-.02.07-.04.15-.06.22.01-.08.03-.15.06-.22zm-.11.37c-.02.08-.03.17-.05.25.01-.08.03-.17.05-.25zm-.08.39c-.02.13-.03.26-.03.4.01-.14.02-.27.03-.4zm-.03.4c-.01.41.04.81.14 1.18-.1-.37-.15-.77-.14-1.18zm.38 1.8c.04.08.08.16.12.23-.04-.08-.08-.16-.12-.23zm3.52 2.28c.09 0 .18 0 .27-.01-.05 0-.1.01-.15.01-.04 0-.08 0-.12 0zm1.07-.11c-.07.02-.13.03-.2.05.06-.02.13-.04.2-.05zm-.39.07c-.07.01-.14.02-.21.03.07-.01.14-.02.21-.03zm.57-.12c.07-.02.13-.04.2-.06-.07.02-.13.04-.2.06zm.37-.12c.06-.03.12-.05.19-.08-.07.02-.13.05-.19.08zm.35-.16c.06-.03.12-.07.18-.1-.06.03-.12.07-.18.1zm.33-.19c.06-.04.11-.08.17-.12-.05.04-.11.08-.17.12zm.32-.22c.05-.04.11-.09.16-.13-.06.04-.11.09-.16.13zm.29-.25.15-.15c-.06.05-.1.1-.15.15zm.26-.27c.05-.05.09-.11.13-.16-.04.05-.08.1-.13.16zm.95-2.08c.02-.13.03-.27.03-.4.02-.64-.12-1.25-.38-1.79.26.54.4 1.15.38 1.79 0 .13-.01.27-.03.4zm-.71 1.78c.04-.06.08-.12.12-.18-.04.06-.08.12-.12.18zm.21-.32c.04-.06.07-.13.1-.19-.03.06-.07.13-.1.19zm.17-.34.09-.21c-.03.07-.05.14-.09.21zm.15-.36c.03-.07.05-.15.07-.23-.02.08-.04.16-.07.23zm.11-.37c.02-.09.04-.18.05-.27-.02.09-.03.18-.05.27z" stroke="#00b8af" stroke-miterlimit="10"/><path d="m198.89 253.12c-.04 0-.09 0-.13 0-2.45 0-4.43 1.9-4.51 4.31-.04 1.18.39 2.3 1.2 3.16.83.88 1.95 1.38 3.17 1.41h.13c2.45 0 4.43-1.9 4.51-4.31.04-1.18-.39-2.3-1.2-3.16-.83-.87-1.96-1.37-3.17-1.41zm-.01.48c.69.02 1.34.21 1.9.53-.56-.32-1.21-.51-1.9-.53-.09 0-.18 0-.27.01.05 0 .1-.01.15-.01zm-.47.01c-.07.01-.14.02-.21.03.07-.01.14-.02.21-.03zm-.4.06c-.07.01-.13.03-.2.04.07-.01.14-.03.2-.04zm-.38.09c-.07.02-.13.04-.19.06.06-.02.13-.04.19-.06zm-.37.12c-.06.03-.12.05-.19.08.07-.02.13-.05.19-.08zm-.35.16c-.06.03-.12.07-.18.1.06-.03.12-.07.18-.1zm-.33.19c-.06.04-.11.08-.17.12.06-.04.11-.08.17-.12zm-.31.22c-.05.04-.1.09-.16.13.05-.04.1-.09.16-.13zm-.29.25c-.05.05-.1.1-.14.15.04-.05.09-.1.14-.15zm-.27.27c-.05.05-.09.11-.13.16.04-.05.09-.11.13-.16zm-.24.3c-.04.06-.08.12-.11.17.04-.05.07-.11.11-.17zm-.2.32c-.04.06-.07.12-.1.19.03-.07.06-.13.1-.19zm-.18.34c-.03.07-.06.13-.08.2.02-.07.05-.14.08-.2zm-.15.36c-.02.07-.04.15-.06.22.02-.08.04-.15.06-.22zm-.11.37c-.02.08-.03.17-.05.25.02-.08.03-.17.05-.25zm-.07.39c-.02.12-.03.24-.03.37.01-.13.02-.25.03-.37zm3.87 4.48c-.14 0-.28-.01-.41-.03-.4-.05-.79-.16-1.15-.32.36.16.74.27 1.15.32.14.01.27.02.41.03.09 0 .18 0 .27-.01-.05 0-.1.01-.15.01-.04 0-.08 0-.12 0zm2.15-.54c-.06.03-.12.07-.18.1.06-.04.12-.07.18-.1zm-.35.17c-.06.03-.12.06-.19.08.07-.02.13-.05.19-.08zm-.36.15c-.06.02-.13.04-.19.06.06-.02.13-.04.19-.06zm-.37.1c-.07.02-.13.03-.2.05.06-.01.13-.03.2-.05zm-.39.08c-.07.01-.14.02-.21.03zm1.62-.59c.06-.04.11-.08.17-.12-.06.04-.11.08-.17.12zm.31-.22c.05-.04.1-.09.16-.13-.05.04-.1.08-.16.13zm.29-.25c.05-.05.1-.1.14-.15-.04.05-.09.1-.14.15zm.27-.27c.05-.05.09-.11.13-.16-.05.05-.09.1-.13.16zm.95-2.08c.02-.13.03-.27.03-.4 0 .13-.02.27-.03.4zm-.72 1.78c.04-.06.08-.12.11-.17-.03.05-.06.11-.11.17zm.21-.32c.04-.06.07-.13.1-.19-.03.06-.06.13-.1.19zm.18-.34c.03-.07.06-.14.08-.21-.02.07-.05.14-.08.21zm.15-.36c.03-.07.05-.15.07-.23-.03.08-.05.16-.07.23zm.1-.37c.02-.08.03-.17.05-.26-.01.09-.03.17-.05.26z" stroke="#00b8af" stroke-miterlimit="10"/><path d="m197.69 235.27h.13c2.45 0 4.43-1.9 4.51-4.31.04-1.18-.39-2.3-1.2-3.16-.83-.88-1.95-1.38-3.17-1.41-.04 0-.09 0-.13 0-2.45 0-4.43 1.9-4.51 4.31-.04 1.18.39 2.3 1.2 3.16.83.88 1.95 1.38 3.17 1.41zm.01-.48c.09 0 .18 0 .27-.01-.05 0-.1.01-.15.01-.04.01-.08.01-.12 0zm.47-.01c.07-.01.14-.02.21-.03-.07.01-.14.02-.21.03zm.39-.05c.07-.01.13-.03.2-.04-.06.01-.13.02-.2.04zm.39-.09c.07-.02.13-.04.19-.06-.06.01-.13.04-.19.06zm.37-.13c.06-.03.12-.05.19-.08-.07.03-.13.06-.19.08zm.35-.16c.06-.03.12-.07.18-.1-.06.04-.12.07-.18.1zm.33-.19c.06-.04.11-.08.17-.12-.06.04-.11.09-.17.12zm.31-.22c.05-.04.11-.09.16-.13-.05.04-.1.09-.16.13zm.29-.25c.05-.05.1-.1.15-.15-.05.06-.1.11-.15.15zm.27-.27c.05-.05.09-.11.13-.16-.04.05-.09.11-.13.16zm.95-2.08c.02-.13.03-.27.03-.4 0 .14-.02.27-.03.4zm-.71 1.78c.04-.06.08-.12.12-.18-.05.07-.08.13-.12.18zm.2-.31c.04-.06.07-.13.1-.19-.03.06-.06.12-.1.19zm.18-.34c.03-.07.06-.14.08-.21-.02.07-.05.14-.08.21zm.15-.36c.03-.07.05-.15.07-.23-.03.08-.05.15-.07.23zm.11-.38c.02-.09.03-.18.05-.27-.02.1-.03.19-.05.27zm-3.8-4.86c-.09 0-.18 0-.27.01.05 0 .1-.01.15-.01.04-.01.08-.01.12 0zm-.47.01c-.07.01-.14.02-.21.03zm-.4.05c-.07.01-.13.03-.2.04.07-.01.14-.02.2-.04zm-.38.09c-.07.02-.13.04-.19.06.06-.01.13-.04.19-.06zm-.37.13c-.06.03-.13.05-.19.08.07-.03.13-.06.19-.08zm-.35.16c-.06.03-.12.07-.18.1.06-.04.12-.07.18-.1zm-.33.19c-.06.04-.11.08-.17.12.06-.05.11-.09.17-.12zm-.31.22c-.05.04-.1.09-.16.13.05-.05.1-.09.16-.13zm-.29.25c-.05.05-.1.1-.14.15.04-.06.09-.11.14-.15zm-.27.27c-.05.05-.09.11-.13.16.04-.05.09-.11.13-.16zm-.24.3c-.04.06-.08.12-.12.17.05-.06.08-.12.12-.17zm-.2.31c-.04.06-.07.13-.1.19.03-.06.06-.12.1-.19zm-.18.34c-.03.07-.06.14-.08.2.02-.06.05-.13.08-.2zm-.15.36c-.02.07-.04.15-.06.22.02-.07.04-.15.06-.22zm-.11.38c-.02.08-.03.17-.05.25.02-.09.03-.17.05-.25zm-.07.39c-.02.12-.03.25-.03.37.01-.13.02-.25.03-.37z" stroke="#00b8af" stroke-miterlimit="10"/><path d="m219.32 253.12c-.04 0-.09 0-.13 0-1.21.03-2.34.54-3.17 1.41-.81.86-1.24 1.98-1.2 3.16.07 2.42 2.05 4.31 4.51 4.31h.13c1.21-.03 2.34-.54 3.17-1.41.81-.86 1.24-1.98 1.2-3.16-.08-2.41-2.06-4.31-4.51-4.31zm2.92 1.73c-.05-.05-.09-.1-.14-.15.05.05.1.1.14.15zm.25.28c-.04-.05-.09-.11-.13-.16.05.05.09.11.13.16zm-3.17-1.53c.05 0 .1.01.15.01-.09 0-.18-.01-.27-.01zm2.65.98c-.05-.04-.1-.09-.16-.13.05.04.11.09.16.13zm-.3-.23c-.06-.04-.11-.08-.17-.12.06.04.11.08.17.12zm-.33-.21c-.06-.03-.12-.07-.18-.1.07.03.12.07.18.1zm-.34-.17c-.06-.03-.12-.06-.19-.08.07.02.13.05.19.08zm-.36-.15c-.06-.02-.13-.05-.2-.06.07.02.13.04.2.06zm-.38-.11c-.07-.02-.13-.03-.2-.05.07.02.14.04.2.05zm-.39-.07c-.07-.01-.14-.02-.21-.03.07.01.14.02.21.03zm-3.72 6.35c.04.05.08.11.13.16-.05-.05-.09-.1-.13-.16zm-.85-2.31c0 .14.02.27.03.4-.02-.13-.03-.27-.03-.4zm.05.53c.01.09.03.17.05.26-.02-.09-.03-.17-.05-.26zm.09.41c.02.07.04.15.07.22-.03-.07-.04-.15-.07-.22zm.13.38c.03.07.05.14.08.2-.03-.07-.05-.14-.08-.2zm.16.35c.03.06.06.13.1.19-.03-.06-.06-.13-.1-.19zm.19.33c.04.06.08.12.12.18-.04-.06-.08-.12-.12-.18zm.48.6c.05.05.09.1.14.15-.05-.05-.09-.1-.14-.15zm3.45 1.22c-.13.02-.27.03-.41.03-.04 0-.08 0-.12 0-.05 0-.1-.01-.15-.01.09 0 .18.01.27.01.14-.01.28-.02.41-.03.4-.05.79-.16 1.15-.32-.36.15-.74.26-1.15.32zm-3.17-.96c.05.04.1.09.16.13-.06-.04-.11-.08-.16-.13zm.3.24c.06.04.11.08.17.12-.06-.04-.12-.08-.17-.12zm.32.21c.06.03.12.07.18.1-.06-.04-.12-.07-.18-.1zm.34.17c.06.03.12.06.19.08-.06-.02-.12-.05-.19-.08zm.36.15c.06.02.13.05.19.06-.06-.02-.12-.04-.19-.06zm.38.1c.07.02.13.03.2.05-.07-.01-.13-.03-.2-.05zm.39.08.21.03c-.07-.01-.14-.02-.21-.03zm4.54-4.44c.02.13.03.27.03.4 0-.14-.01-.27-.03-.4zm-.71-1.78.12.18c-.04-.06-.08-.12-.12-.18zm.21.32c.04.06.07.13.1.19-.03-.06-.06-.13-.1-.19zm.18.34c.03.07.06.14.08.21-.03-.08-.05-.15-.08-.21zm.14.36c.03.07.05.15.07.23-.02-.08-.04-.16-.07-.23zm.11.37c.02.08.03.17.05.26-.02-.09-.03-.18-.05-.26z" stroke="#00b8af" stroke-miterlimit="10"/><path d="m245.24 240.33c-.04 0-.09 0-.13 0-1.21.03-2.34.54-3.16 1.41-.81.86-1.24 1.98-1.2 3.16.07 2.42 2.05 4.31 4.51 4.31h.13c1.21-.03 2.34-.54 3.17-1.41.81-.86 1.24-1.98 1.2-3.16-.09-2.41-2.07-4.31-4.52-4.31zm2.92 1.73c-.05-.05-.09-.1-.14-.15.05.05.1.1.14.15zm.25.28c-.04-.05-.08-.11-.13-.16.05.06.09.11.13.16zm-3.17-1.53c.05 0 .1.01.15.01-.09 0-.18-.01-.27-.01zm2.65.99c-.05-.04-.1-.09-.16-.13.05.04.1.08.16.13zm-.3-.24c-.06-.04-.11-.08-.17-.12.06.04.11.08.17.12zm-.33-.21c-.06-.03-.12-.07-.18-.1.07.04.12.07.18.1zm-.34-.17c-.06-.03-.12-.06-.19-.08.07.02.13.05.19.08zm-.36-.15c-.06-.02-.13-.04-.19-.06.06.02.12.04.19.06zm-.38-.11c-.07-.02-.13-.03-.2-.04.07.01.13.03.2.04zm-.39-.07c-.07-.01-.14-.02-.21-.03.07.01.14.02.21.03zm-.89 7.88c-.07-.01-.14-.02-.21-.03.07.01.14.02.21.03zm-.4-.06c-.07-.01-.13-.03-.2-.05.07.02.13.04.2.05zm-.38-.09c-.07-.02-.13-.04-.19-.06.06.02.12.04.19.06zm-.37-.12c-.06-.03-.12-.05-.19-.08.07.02.13.05.19.08zm-.35-.16c-.06-.03-.12-.06-.18-.1.06.03.12.07.18.1zm-2.18-3.41c0 .14.02.27.03.4-.02-.13-.03-.26-.03-.4zm.85 2.32c.04.05.08.11.13.16-.05-.05-.09-.11-.13-.16zm-.8-1.79c.01.09.03.17.05.26-.02-.08-.03-.17-.05-.26zm.09.41c.02.08.04.15.07.22-.03-.07-.04-.15-.07-.22zm.13.38c.03.07.05.14.08.2-.03-.06-.05-.13-.08-.2zm.16.35c.03.06.06.13.1.19-.03-.06-.06-.12-.1-.19zm.2.34c.04.06.07.12.11.17-.04-.06-.08-.11-.11-.17zm.47.59c.05.05.09.1.14.15-.05-.05-.09-.1-.14-.15zm.74.62c-.06-.04-.11-.08-.17-.11.06.03.12.07.17.11zm-.31-.22c-.05-.04-.1-.09-.16-.13.06.04.11.09.16.13zm2.5.85c-.05 0-.1-.01-.15-.01.09 0 .18.01.27.01-.05 0-.08 0-.12 0zm2.34-.74c-.21.15-.43.28-.67.38.24-.1.46-.23.67-.38s.4-.32.58-.5c-.17.18-.37.35-.58.5zm1.25-1.43c.12-.23.21-.47.28-.72-.07.25-.16.49-.28.72zm-.32-4.09c.04.06.08.12.11.17-.03-.05-.07-.11-.11-.17zm.21.32c.04.06.07.13.1.19-.03-.06-.06-.13-.1-.19zm.18.34c.03.07.06.14.08.21-.02-.07-.05-.14-.08-.21zm.14.36c.03.07.05.15.07.23-.02-.08-.04-.16-.07-.23zm.18.76c.02.13.03.27.03.4 0-.13-.01-.27-.03-.4zm-.07-.39c.02.09.03.17.05.26-.01-.08-.03-.17-.05-.26z" stroke="#00b8af" stroke-miterlimit="10"/><path d="m220.25 226.39c-.04 0-.09 0-.13 0-1.21.03-2.34.54-3.17 1.41-.81.86-1.24 1.98-1.2 3.16.07 2.42 2.05 4.31 4.51 4.31h.13c1.21-.03 2.34-.54 3.17-1.41.81-.86 1.24-1.98 1.2-3.16-.08-2.42-2.06-4.31-4.51-4.31zm2.93 1.72c-.05-.05-.1-.1-.15-.15.05.05.1.1.15.15zm.25.29c-.04-.05-.09-.11-.13-.16.04.05.08.11.13.16zm-3.03-1.53c-.09 0-.18-.01-.27-.01h.12c.05 0 .1.01.15.01zm2.5.98c-.05-.05-.1-.09-.16-.13.05.04.11.09.16.13zm-.3-.24c-.06-.04-.11-.08-.17-.12.06.04.11.09.17.12zm-.33-.2c-.06-.03-.12-.07-.18-.1.07.03.12.06.18.1zm-.34-.18c-.06-.03-.12-.06-.19-.08.07.02.13.05.19.08zm-.36-.14c-.06-.02-.13-.05-.2-.06.07.01.13.04.2.06zm-.38-.11c-.07-.02-.13-.03-.2-.05.07.02.14.03.2.05zm-.39-.07c-.07-.01-.14-.02-.21-.03.07.01.14.02.21.03zm-.89 7.87c-.07-.01-.14-.02-.21-.03.07.01.14.02.21.03zm-.4-.05c-.07-.01-.13-.03-.2-.04.07.01.13.02.2.04zm-.38-.09c-.07-.02-.13-.04-.19-.06.06.01.12.04.19.06zm-.37-.13c-.06-.03-.12-.05-.19-.08.06.03.13.06.19.08zm-.35-.16c-.06-.03-.12-.07-.18-.1.06.04.12.07.18.1zm-.34-.19c-.06-.04-.11-.08-.17-.12.06.04.12.09.17.12zm-.31-.22c-.05-.04-.11-.09-.16-.13.06.04.11.09.16.13zm-1.5-2.6c-.02-.13-.03-.27-.03-.4 0 .14.01.27.03.4zm.71 1.78c-.04-.06-.08-.12-.12-.18.04.07.08.13.12.18zm-.21-.31c-.04-.06-.07-.13-.1-.19.03.06.07.12.1.19zm-.18-.34c-.03-.07-.06-.14-.08-.21.03.07.05.14.08.21zm-.14-.36c-.03-.07-.05-.15-.07-.23.02.08.04.15.07.23zm-.11-.38c-.02-.09-.03-.17-.05-.26.02.09.03.18.05.26zm.75 1.53c.04.05.09.11.13.16-.05-.05-.09-.11-.13-.16zm.25.29.15.15c-.06-.05-.11-.1-.15-.15zm2.93 1.25c-.05 0-.1-.01-.15-.01.09 0 .18.01.27.01-.05 0-.08 0-.12 0zm3.98-4.48c.02.13.03.27.03.4 0-.14-.01-.27-.03-.4zm-.71-1.78.12.18c-.04-.07-.08-.13-.12-.18zm.21.31c.04.06.07.13.1.19-.03-.06-.06-.12-.1-.19zm.18.34c.03.07.06.14.08.2-.03-.06-.05-.13-.08-.2zm.14.36c.03.07.04.15.07.22-.02-.07-.04-.15-.07-.22zm.11.38c.02.08.03.17.05.25-.02-.08-.03-.17-.05-.25z" stroke="#00b8af" stroke-miterlimit="10"/><path d="m222.19 134.15c0 .47.09.93.25 1.37.14.38.32.74.56 1.06.87 1.2 2.3 1.91 3.83 1.91h.04c1.07-.01 2.12-.37 2.94-1.02.31-.24.59-.53.82-.85.56-.75.84-1.63.84-2.54 0-.29-.04-.59-.1-.87-.08-.35-.21-.71-.39-1.05-.79-1.49-2.38-2.42-4.14-2.42h-.04c-1.23.01-2.39.47-3.26 1.3-.89.82-1.36 1.93-1.35 3.11zm1.19 2.15c.09.13.2.25.31.37-.11-.12-.21-.24-.31-.37zm3.44 1.71c-.09 0-.18-.01-.27-.02.1.01.2.02.31.02-.01 0-.02 0-.04 0zm-3.01-1.22c.08.07.15.15.23.22-.08-.07-.16-.15-.23-.22zm.39.33c.08.06.15.12.23.18-.08-.06-.16-.12-.23-.18zm.41.28c.08.05.16.1.25.14-.09-.04-.17-.09-.25-.14zm.45.23c.09.04.17.08.26.11-.09-.03-.18-.07-.26-.11zm.47.18c.09.03.18.06.27.08-.09-.02-.18-.05-.27-.08zm.51.12c.09.02.18.04.28.05-.1-.01-.19-.03-.28-.05zm3.46-6.81c.09.07.16.15.24.22-.08-.08-.16-.16-.24-.22zm.76.79c.11.15.2.3.29.46-.08-.16-.18-.32-.29-.46zm-.12-.15c-.08-.09-.15-.19-.23-.28.08.09.16.19.23.28zm-3.31-1.56c.1 0 .2.01.3.02-.11-.01-.23-.02-.34-.02zm2.47.78c-.09-.06-.17-.12-.26-.18.09.05.17.12.26.18zm-.49-.29c-.09-.05-.18-.1-.28-.14.1.04.19.09.28.14zm-.52-.23c-.1-.03-.19-.07-.3-.1.1.03.2.06.3.1zm-.56-.16c-.1-.02-.21-.05-.31-.06.1.02.2.04.31.06z" stroke="#00b8af" stroke-miterlimit="10"/><path d="m248.65 86.95h.72v21.85h-.72z"/><path d="m251.53 147.64h6.93v.72h-6.93z" transform="matrix(.8311 -.556 .556 .8311 -39.2394 166.7787)"/><path d="m198.04 92.17h23.48v.72h-23.48z" transform="matrix(.8121 -.5835 .5835 .8121 -14.5723 139.7927)"/><path d="m207.34 142.87h18.35v.72h-18.35z" transform="matrix(.8072 -.5902 .5902 .8072 -42.7995 155.4041)"/><path d="m249.45 153.43h8.42v.72h-8.42z"/><path d="m219.39 146.3h.72v38.54h-.72z" transform="matrix(.8336 -.5523 .5523 .8336 -54.8842 148.9086)"/><path d="m249.25 189.62h9.27v.72h-9.27z" transform="matrix(.8609 -.5088 .5088 .8609 -61.3451 155.6206)"/><path d="m254.19 215.22h.72v9.8h-.72z" transform="matrix(.7349 -.6782 .6782 .7349 -81.8023 230.9934)"/><path d="m258.22 251.8.34-.63-11.61-6.29 2.86-31.09-.44-.04v-20.98-.86-16.78l8.36 3.83.3-.65-8.42-3.86-.23.51v-1.9-2.14-16.28-1.61l1.66.18.08-.71-1.74-.19v-1.1-18.42h-.72v17.75l-20.3-13.73.12-.03 1.05.42.26-.67-.16-.06 18.59-5.04-.19-.69-19.09 5.17 19.71-22.47v18.51h.72v-1.09l8.26-5.46-.4-.6-7.87 5.2v-17.37l1.54-1.76-.54-.47-1.01 1.15v-1.12l8.54-.83-.07-.71-8.87.86.03.36h-.36v2.26l-20.61 23.49-1.29-.51-11.32-28.29 32.2 3.84.08-.71-32.36-3.86-.05.42-.58-1.45 35.15-22.03-.38-.61-.16.1-27.38.43v.23l-.28-.1-8.11 21.95.34.12.19.3.02-.01 11.72 29.3-34.06-13.46 21.53-14.98-.41-.59-21.3 14.82 5.88-18.27-.68-.22-6.21 19.28.34.11-.36-.02-.86 18.08h-.02l.01.07-.02.39h.1l3.45 16.24.35-.07-.32.16.64 1.29-.09.12.24.17 11.18 22.4.32-.16-.29.21 16.85 23.56.58-.42-16.83-23.54-10.55-21.15 33.97 24.62.21-.29.16.32 1.44-.74-.59 1.11.63.33 1.07-2.02 16.43-8.49v18.06.86.49l-16.74-10.22-.37.61 16.85 10.28.27-.45v20.27h.44l-.02.24-27.44 16.63.19.31-.36-.04-3.01 26.69-9.16-11.55.09-.07-12.86-15.26-.27.23-.06-.35-31.43 5.43-.28-.19-.18.27h-.03v.03l-9.23 13.61-.14-.05-.16.48-.91 1.34.39.26-5.53 16.99.68.22 6.02-18.5 8.91-13.14 11.73 28.93-.21.03-19.03-15.1-.44.56 18.49 14.67-25.63 3.55.1.71 26.31-3.65 1.08.86 1.04 2.57.66-.27-.73-1.81 21.6-9.5 9.14 9.15.26-.26.47.47 9.65-9.65.09.17 1.16-.62 6.92 15.7.66-.29-6.94-15.75 23.83-12.74-7.74 28.76.69.19 7.26-26.99 11.57 27.04.66-.28-11.93-27.88.3-1.12zm-71.4-1.63 9.21-18.02 2.89 25.63zm-21.5-13.53 30.29-5.23-9.39 18.38zm11.93 30.7-.2-.48.48-.07zm9.25-16.53 12.1 7.61-20.63 9.07zm-.61-.38-7.97 15.58-1.15.16-11.69-28.84zm13.81 7.89-2.96-26.25 12.03 14.28-.09.07 9.43 11.88-9.23 9.22zm19.45-.48 2.97-26.32 22.03 12.96zm25.86-13.58.04-.07-22.54-13.26 26.47-16.04-2.72 29.63-1-.54-.17.31zm-15.47-61.34-34.91-25.3-.69-1.39-3.5-16.51.81-17.01 17.57 25.27.59-.41-17.59-25.29 34.39 13.58.25.63.26-.1-.07.11.06.04.17.61-.35.4.54.47.69-.79 20.73 14.03-.54-.28-.58 1.09-33.9-3.67-.08.71 33.61 3.64-15.32 29.03zm19.03-31.57.08.06v.83l-.52-.06zm-26.34-67.47 25.94-.4-33.56 21.03zm26.17 89.29-15.6 8.06 14.97-28.38.88.1v1.69 16.28 2.14.59z"/><path d="m198.03 230.58h22.17v.72h-22.17z"/><path d="m250.05 213.61h8.11v.72h-8.11z" transform="matrix(.9292 -.3696 .3696 .9292 -61.0904 109.0675)"/><path d="m220.54 229.68 5-23.73 19.77 8.99.3-.65-19.92-9.06.17-.82-.7-.15-.14.67-2.02-.92-.29.65 2.16.98-5.03 23.89z"/><path d="m412.66 147.89h7.1l24.28 56.73c1.42 3.47 2.68 7.82 2.68 7.82h.32s1.26-4.34 2.68-7.82l24.28-56.73h6.94l-30.9 72.36h-6.31z" stroke="#00b8af" stroke-linecap="round" stroke-linejoin="round" stroke-miterlimit="10"/><path d="m532.16 176.11h5.2v-2.46c0-16.06-8.99-21.56-21.6-21.56-13.72 0-22.55 6.95-22.55 6.95l-3.78-4.92s9.46-7.96 26.65-7.96c18.13 0 27.91 9.26 27.91 27.35v46.74h-6.62v-9.55c0-3.91.63-6.51.63-6.51h-.32c.16 0-7.1 17.8-27.59 17.8-12.77 0-26.8-6.51-26.8-20.98 0-24.61 34.84-24.9 48.87-24.9zm-21.75 40.23c17.19 0 26.96-16.35 26.96-30.68v-3.91h-5.04c-13.4 0-42.1 0-42.1 18.81-.01 7.68 6.77 15.78 20.18 15.78z" stroke="#00b8af" stroke-linecap="round" stroke-linejoin="round" stroke-miterlimit="10"/><path d="m561.96 118.95h6.62v84.8c0 10.13 5.68 11.29 9.3 11.29 1.26 0 2.36-.15 2.36-.15v5.64s-1.42.29-2.84.29c-4.57 0-15.45-1.59-15.45-15.2v-86.67z" stroke="#00b8af" stroke-linecap="round" stroke-linejoin="round" stroke-miterlimit="10"/><path d="m590.49 118.95h7.88v10.56h-7.88zm.63 28.94h6.62v72.36h-6.62z" stroke="#00b8af" stroke-linecap="round" stroke-linejoin="round" stroke-miterlimit="10"/><path d="m647.72 146.16c19.87 0 27.28 16.35 27.28 16.35h.32s-.63-2.61-.63-5.93v-37.63h6.62v101.3h-6.62v-9.12c0-3.33.63-5.5.63-5.5h-.32s-6.78 16.35-28.54 16.35c-21.13 0-34.06-15.48-34.06-37.91.01-23.01 14.67-37.91 35.32-37.91zm-.94 69.89c14.51 0 28.06-9.41 28.06-32.13 0-16.06-8.99-31.84-27.43-31.84-15.45 0-28.06 11.72-28.06 31.98-.01 19.55 11.35 31.99 27.43 31.99z" stroke="#00b8af" stroke-linecap="round" stroke-linejoin="round" stroke-miterlimit="10"/></g><path d="m741.7 147.89h6.62v12.73c0 3.33-.63 5.93-.63 5.93h.31c3.94-10.85 17.97-20.4 30.27-20.4 15.77 0 23.18 6.8 24.91 19.68h.32c4.42-10.13 16.4-19.68 29.96-19.68 20.34 0 26.33 11 26.33 28.22v45.87h-6.62v-43.7c0-13.6-3-24.75-19.71-24.75-13.09 0-24.28 10.71-27.75 22-1.1 3.33-1.58 6.95-1.58 11.14v35.31h-6.62v-43.7c0-12.45-1.89-24.75-19.24-24.75-14.03 0-25.07 11.29-28.7 23.3-.95 3.04-1.26 6.37-1.26 9.84v35.31h-6.62v-72.35z" stroke="#000" stroke-miterlimit="10"/><path d="m910.96 146.16c21.44 0 32.16 15.48 32.16 32.99 0 1.59-.32 3.91-.32 3.91h-63.22c0 20.98 15.45 33 33.74 33 15.14 0 24.44-9.12 24.44-9.12l3.63 5.07s-11.04 9.98-28.06 9.98c-22.23 0-40.68-14.76-40.68-37.77 0-24.46 18.13-38.06 38.31-38.06zm25.22 31.26c-.79-17.66-12.3-25.61-25.38-25.61-14.51 0-27.91 8.68-30.74 25.61z" stroke="#000" stroke-miterlimit="10"/><path d="m723.11 185.27v1.11c0 5.97-5.23 10.81-11.69 10.81-6.45 0-11.69-4.84-11.69-10.81v-1.11c0-5.97 5.23-10.81 11.69-10.81 6.46 0 11.69 4.84 11.69 10.81z" fill="#00b8af"/><path d="m711.43 198.24c-7.02 0-12.73-5.32-12.73-11.85v-1.11c0-6.54 5.71-11.85 12.73-11.85s12.73 5.32 12.73 11.85v1.11c0 6.53-5.71 11.85-12.73 11.85zm0-22.74c-5.87 0-10.65 4.38-10.65 9.77v1.11c0 5.39 4.78 9.77 10.65 9.77s10.64-4.38 10.64-9.77v-1.11c0-5.39-4.77-9.77-10.64-9.77z" fill="#fff"/></svg>